<?xml version="1.0" encoding="utf-8"?>
<!-- Generator: Adobe Illustrator 16.0.0, SVG Export Plug-In . SVG Version: 6.00 Build 0)  -->
<!DOCTYPE svg PUBLIC "-//W3C//DTD SVG 1.1//EN" "http://www.w3.org/Graphics/SVG/1.1/DTD/svg11.dtd">
<svg version="1.1" id="Layer_1" xmlns="http://www.w3.org/2000/svg" xmlns:xlink="http://www.w3.org/1999/xlink" x="0px" y="0px"
	 width="130px" height="130px" viewBox="0 0 130 130" enable-background="new 0 0 130 130" xml:space="preserve">
<g>
	<g>
		<g>
			<polygon fill="#991C13" points="23.004,5.898 31.335,10.692 23.004,15.546 14.673,10.692 			"/>
			<polygon fill="#421107" points="14.673,10.692 23.004,15.546 23.004,53.814 14.673,49.004 			"/>
			<polyline fill="#421107" points="14.673,10.692 23.004,15.546 23.004,53.814 			"/>
			<polygon fill="#66C6C6" points="31.335,10.692 23.004,15.546 23.004,53.814 31.335,49.004 			"/>
			<polyline fill="#5BAEB2" points="31.335,10.692 23.004,15.546 23.004,53.814 			"/>
		</g>
		<g>
			<polygon fill="#9FA4A5" points="50.74,119.248 71.473,107.279 81.84,113.263 61.105,125.232 			"/>
			<g>
				<g>
					<polygon fill="#4F1309" points="70.01,86.096 80.314,92.045 80.314,114.202 70.01,108.255 					"/>
					<polyline fill="#421107" points="70.01,86.096 80.314,92.045 80.314,114.202 					"/>
					<polygon fill="#C41E1E" points="90.618,86.096 80.314,92.045 80.314,114.202 90.618,108.255 					"/>
					<polyline fill="#771A0E" points="90.618,86.096 80.314,92.045 80.314,114.202 					"/>
				</g>
				<g>
					<polygon fill="#ADA687" points="81.569,113.305 81.569,110.83 83.711,109.594 83.711,112.067 					"/>
					<polygon fill="#ADA687" points="84.562,111.585 84.562,109.112 86.704,107.875 86.704,110.349 					"/>
					<polygon fill="#ADA687" points="87.554,109.867 87.554,107.393 89.696,106.155 89.696,108.629 					"/>
				</g>
			</g>
			<g>
				<g>
					<polygon fill="#4F1309" points="44.413,100.895 54.715,106.844 54.715,129 44.413,123.053 					"/>
					<polyline fill="#421107" points="44.413,100.895 54.715,106.844 54.715,129 					"/>
					<polygon fill="#C41E1E" points="65.019,100.895 54.715,106.844 54.715,129 65.019,123.053 					"/>
					<polyline fill="#771A0E" points="65.019,100.895 54.715,106.844 54.715,129 					"/>
				</g>
				<g>
					<polygon fill="#ADA687" points="55.973,128.102 55.973,125.629 58.113,124.392 58.113,126.865 					"/>
					<polygon fill="#ADA687" points="58.964,126.383 58.964,123.91 61.105,122.672 61.105,125.146 					"/>
					<polygon fill="#ADA687" points="61.956,124.664 61.956,122.19 64.098,120.953 64.098,123.427 					"/>
				</g>
			</g>
		</g>
		<g>
			<polygon fill="#9FA4A5" points="10.718,96.122 31.449,84.153 41.816,90.137 21.082,102.105 			"/>
			<g>
				<g>
					<polygon fill="#559CA3" points="29.987,62.971 40.291,68.92 40.291,91.076 29.987,85.129 					"/>
					<polyline fill="#4A858E" points="29.987,62.971 40.291,68.92 40.291,91.076 					"/>
					<polygon fill="#417682" points="50.595,62.971 40.291,68.92 40.291,91.076 50.595,85.129 					"/>
					<polyline fill="#316068" points="50.595,62.971 40.291,68.92 40.291,91.076 					"/>
				</g>
				<g>
					<polygon fill="#F9CE46" points="41.546,90.178 41.546,87.705 43.688,86.468 43.688,88.941 					"/>
					<polygon fill="#F9CE46" points="44.538,88.46 44.538,85.986 46.681,84.748 46.681,87.223 					"/>
					<polygon fill="#F9CE46" points="47.53,86.74 47.53,84.267 49.673,83.029 49.673,85.504 					"/>
				</g>
			</g>
			<g>
				<g>
					<polygon fill="#4F1309" points="4.39,77.768 14.693,83.717 14.693,105.874 4.39,99.927 					"/>
					<polyline fill="#421107" points="4.39,77.768 14.693,83.717 14.693,105.874 					"/>
					<polygon fill="#C41E1E" points="24.997,77.768 14.693,83.717 14.693,105.874 24.997,99.927 					"/>
					<polyline fill="#771A0E" points="24.997,77.768 14.693,83.717 14.693,105.874 					"/>
				</g>
				<g>
					<polygon fill="#ADA687" points="15.949,104.977 15.949,102.504 18.09,101.266 18.09,103.739 					"/>
					<polygon fill="#ADA687" points="18.94,103.257 18.94,100.784 21.082,99.547 21.082,102.021 					"/>
					<polygon fill="#ADA687" points="21.934,101.538 21.934,99.064 24.074,97.827 24.074,100.301 					"/>
				</g>
			</g>
		</g>
		<g>
			<g>
				<g>
					<g>
						<g>
							<polygon fill="#4F1309" points="4.39,21.744 54.675,50.783 54.675,106.951 4.39,77.911 							"/>
							<polyline fill="#421107" points="4.39,21.744 54.675,50.783 54.675,106.951 							"/>
							<polygon fill="#380A03" points="54.675,50.783 54.675,106.951 90.618,86.21 90.618,30.042 							"/>
						</g>
						<polygon fill="#C41E1E" points="54.675,50.783 90.618,30.042 40.318,1 4.39,21.744 						"/>
						<polyline fill="#991C13" points="4.39,21.744 54.675,50.783 90.618,30.042 						"/>
					</g>
					<g>
						<g>
							<polygon fill="#991C13" points="81.144,49.331 112.002,31.515 112.002,82.238 81.144,100.053 							"/>
							<polyline fill="#771A0E" points="81.144,100.053 81.144,49.331 112.002,31.515 							"/>
							<polygon fill="#4F1309" points="50.284,31.515 81.144,49.331 81.144,100.053 50.284,82.238 							"/>
							<polyline fill="#421107" points="50.284,31.515 81.144,49.331 81.144,100.053 							"/>
							<polygon fill="#DD6B6B" points="50.284,31.515 81.144,13.699 112.002,31.515 81.144,49.331 							"/>
							<polyline fill="#B74141" points="112.002,31.515 81.144,49.331 50.284,31.515 							"/>
							<polygon fill="#991C13" points="81.144,23.471 72.812,18.617 72.812,44.773 81.144,49.584 89.476,44.773 89.476,18.617 
															"/>
							<polygon fill="#991C13" points="66.947,41.135 66.947,31.515 65.868,31.515 58.615,35.739 58.615,36.324 							"/>
						</g>
						<g>
							<g>
								<polygon fill="#070606" points="87.302,53.938 87.302,58.352 91.146,56.135 91.119,51.736 								"/>
								<polygon fill="#070606" points="103.748,44.413 103.748,48.828 107.591,46.609 107.563,42.211 								"/>
							</g>
							<g>
								<polyline fill="#333232" points="87.302,58.352 91.146,56.135 91.119,51.736 								"/>
								<polyline fill="#333232" points="103.748,48.828 107.591,46.609 107.563,42.211 								"/>
							</g>
						</g>
					</g>
					<g>
						<g>
							<polygon fill="#DD6B6B" points="105.669,69.434 122.86,59.508 122.86,93.454 105.669,103.379 							"/>
							<polyline fill="#B74141" points="105.669,103.379 105.669,69.434 122.86,59.508 							"/>
							<polygon fill="#4F1309" points="88.479,59.508 105.669,69.434 105.669,103.379 88.479,93.454 							"/>
							<polyline fill="#421107" points="88.479,59.508 105.669,69.434 105.669,103.379 							"/>
							<polygon fill="#C41E1E" points="88.479,59.508 105.669,49.584 122.86,59.508 105.669,69.434 							"/>
							<polyline fill="#991C13" points="122.86,59.508 105.669,69.434 88.479,59.508 							"/>
						</g>
						<g>
							<g>
								<polygon fill="#6B563E" points="118.262,66.693 118.262,69.153 120.402,67.918 120.387,65.467 								"/>
							</g>
							<g>
								<polyline fill="#84694E" points="118.262,69.153 120.402,67.918 120.387,65.467 								"/>
							</g>
						</g>
					</g>
					<g>
						<g>
							<polygon fill="#6D6A6A" points="117.89,70.19 125.61,65.733 125.61,80.977 117.89,85.434 							"/>
							<polyline fill="#5B5757" points="117.89,85.434 117.89,70.19 125.61,65.733 							"/>
							<polygon fill="#231E1E" points="110.171,65.733 117.89,70.19 117.89,85.434 110.171,80.977 							"/>
							<polyline fill="#070606" points="110.171,65.733 117.89,70.19 117.89,85.434 							"/>
							<polygon fill="#5B5757" points="110.171,65.733 117.89,61.277 125.61,65.733 117.89,70.19 							"/>
							<polyline fill="#3F3B3B" points="125.61,65.733 117.89,70.19 110.171,65.733 							"/>
						</g>
						<g>
							<g>
								<polygon fill="#070606" points="119.431,76.317 119.431,77.422 120.393,76.867 120.386,75.768 								"/>
								<polygon fill="#070606" points="123.544,73.936 123.544,75.039 124.505,74.484 124.499,73.384 								"/>
							</g>
							<g>
								<polyline fill="#231E1E" points="119.431,77.422 120.393,76.867 120.386,75.768 								"/>
								<polyline fill="#231E1E" points="123.544,75.039 124.505,74.484 124.499,73.384 								"/>
							</g>
						</g>
					</g>
				</g>
			</g>
		</g>
	</g>
	<g>
		<polygon fill="#DD6B6B" points="58.615,15.843 66.947,20.637 58.615,25.489 50.284,20.637 		"/>
		<polygon fill="#070201" points="50.284,20.637 58.615,25.489 58.615,36.401 50.284,31.592 		"/>
		<polyline fill="#210803" points="50.284,20.637 58.615,25.489 58.615,36.401 		"/>
		<polygon fill="#C41E1E" points="66.947,20.637 58.615,25.489 58.615,36.401 66.947,31.592 		"/>
		<polyline fill="#771A0E" points="66.947,20.637 58.615,25.489 58.615,36.401 		"/>
	</g>
	<g>
		<polygon fill="#DD6B6B" points="81.144,2.906 89.476,7.7 81.144,12.554 72.812,7.7 		"/>
		<polygon fill="#4F1309" points="72.812,7.7 81.144,12.554 81.144,23.466 72.812,18.656 		"/>
		<polyline fill="#421107" points="72.812,7.7 81.144,12.554 81.144,23.466 		"/>
		<polygon fill="#C41E1E" points="89.476,7.7 81.144,12.554 81.144,23.466 89.476,18.656 		"/>
		<polyline fill="#771A0E" points="89.476,7.7 81.144,12.554 81.144,23.466 		"/>
	</g>
</g>
</svg>
