<?xml version="1.0" encoding="utf-8"?>
<!-- Generator: Adobe Illustrator 16.0.0, SVG Export Plug-In . SVG Version: 6.00 Build 0)  -->
<!DOCTYPE svg PUBLIC "-//W3C//DTD SVG 1.1//EN" "http://www.w3.org/Graphics/SVG/1.1/DTD/svg11.dtd">
<svg version="1.1" id="Layer_1" xmlns="http://www.w3.org/2000/svg" xmlns:xlink="http://www.w3.org/1999/xlink" x="0px" y="0px"
	 width="130px" height="130px" viewBox="0 0 130 130" enable-background="new 0 0 130 130" xml:space="preserve">
<g>
	<g>
		<g>
			<polygon fill="#4E6868" points="101.728,35.633 117.631,38.379 117.631,46.654 101.728,37.471 			"/>
			<polyline fill="#425A5B" points="101.728,35.633 117.631,38.379 117.631,46.654 			"/>
			<polygon fill="#85ACAF" points="117.631,38.379 117.631,46.654 129,40.096 129,38.256 			"/>
		</g>
		<polygon fill="#6C8E93" points="117.631,38.379 129,38.256 113.091,29.07 101.728,35.633 		"/>
		<polyline fill="#5F7F82" points="101.728,35.633 117.631,44.816 129,38.256 		"/>
	</g>
	<g>
		<g>
			<polygon fill="#4E6868" points="83.936,40.172 104.371,43.701 104.371,54.336 83.936,42.533 			"/>
			<polyline fill="#425A5B" points="83.936,40.172 104.371,43.701 104.371,54.336 			"/>
			<polygon fill="#85ACAF" points="104.371,43.701 104.371,54.336 118.979,45.906 118.979,43.545 			"/>
		</g>
		<polygon fill="#6C8E93" points="104.371,43.701 118.979,43.545 98.537,31.74 83.936,40.172 		"/>
		<polyline fill="#5F7F82" points="83.936,40.172 104.371,51.975 118.979,43.545 		"/>
	</g>
	<g>
		<g>
			<polygon fill="#4E6868" points="59.111,46.176 86.097,50.834 86.097,64.877 59.111,49.293 			"/>
			<polyline fill="#425A5B" points="59.111,46.176 86.097,50.834 86.097,64.877 			"/>
			<polygon fill="#85ACAF" points="86.097,50.834 86.097,64.877 105.386,53.746 105.386,50.629 			"/>
		</g>
		<polygon fill="#6C8E93" points="86.097,50.834 105.386,50.629 78.393,35.043 59.111,46.176 		"/>
		<polyline fill="#5F7F82" points="59.111,46.176 86.097,61.758 105.386,50.629 		"/>
	</g>
	<g>
		<g>
			<polygon fill="#055FA8" points="8.921,33.648 35.906,38.307 35.906,52.35 8.921,36.766 			"/>
			<polyline fill="#044F99" points="8.921,33.648 35.906,38.307 35.906,52.35 			"/>
			<polygon fill="#85ACAF" points="35.906,38.307 35.906,52.35 55.195,41.219 55.195,38.1 			"/>
		</g>
		<polygon fill="#27CAFC" points="35.906,38.307 55.195,38.1 28.202,22.516 8.921,33.648 		"/>
		<polyline fill="#24B4ED" points="8.921,33.648 35.906,49.23 55.195,38.1 		"/>
	</g>
	<g>
		<g>
			<polygon fill="#4E6868" points="22.069,48.379 64.957,73.146 64.957,95.465 22.069,70.697 			"/>
			<polyline fill="#425A5B" points="22.069,48.379 64.957,73.146 64.957,95.465 			"/>
			<polygon fill="#A5CDCE" points="64.957,73.146 64.957,95.465 95.613,77.775 95.613,55.457 			"/>
			<polyline fill="#85ACAF" points="95.613,55.457 64.957,73.146 64.957,95.465 			"/>
		</g>
		<polygon fill="#6C8E93" points="64.957,73.146 95.613,55.457 52.713,30.688 22.069,48.379 		"/>
		<polyline fill="#5F7F82" points="22.069,48.379 64.957,73.146 95.613,55.457 		"/>
	</g>
	<g>
		<g>
			<polygon fill="#4E6868" points="15.894,73.807 42.879,78.467 42.879,92.51 15.894,76.926 			"/>
			<polyline fill="#425A5B" points="15.894,73.807 42.879,78.467 42.879,92.51 			"/>
			<polygon fill="#85ACAF" points="42.879,78.467 42.879,92.51 62.168,81.379 62.168,78.26 			"/>
		</g>
		<polygon fill="#6C8E93" points="42.879,78.467 62.168,78.26 35.175,62.674 15.894,73.807 		"/>
		<polyline fill="#5F7F82" points="15.894,73.807 42.879,89.391 62.168,78.26 		"/>
	</g>
	<g>
		<g>
			<polygon fill="#4E6868" points="7.835,86.76 28.271,90.289 28.271,100.924 7.835,89.121 			"/>
			<polyline fill="#425A5B" points="7.835,86.76 28.271,90.289 28.271,100.924 			"/>
			<polygon fill="#85ACAF" points="28.271,90.289 28.271,100.924 42.879,92.494 42.879,90.133 			"/>
		</g>
		<polygon fill="#6C8E93" points="28.271,90.289 42.879,90.133 22.437,78.328 7.835,86.76 		"/>
		<polyline fill="#5F7F82" points="7.835,86.76 28.271,98.561 42.879,90.133 		"/>
	</g>
	<g>
		<g>
			<polygon fill="#4E6868" points="1,96.461 16.903,99.207 16.903,107.484 1,98.299 			"/>
			<polyline fill="#425A5B" points="1,96.461 16.903,99.207 16.903,107.484 			"/>
			<polygon fill="#85ACAF" points="16.903,99.207 16.903,107.484 28.271,100.924 28.271,99.086 			"/>
		</g>
		<polygon fill="#6C8E93" points="16.903,99.207 28.271,99.086 12.363,89.9 1,96.461 		"/>
		<polyline fill="#5F7F82" points="1,96.461 16.903,105.646 28.271,99.086 		"/>
	</g>
	<g>
		<g>
			<polygon fill="#055FA8" points="73.578,67.484 91.496,77.832 91.496,91.227 73.578,80.879 			"/>
			<polyline fill="#044F99" points="73.578,67.484 91.496,77.832 91.496,91.227 			"/>
			<polygon fill="#27CAFC" points="91.496,77.832 91.496,91.227 104.303,83.836 104.303,70.441 			"/>
			<polyline fill="#24B4ED" points="104.303,70.441 91.496,77.832 91.496,91.227 			"/>
		</g>
		<polygon fill="#055FA8" points="91.496,77.832 104.303,70.441 86.38,60.092 73.578,67.484 		"/>
		<polyline fill="#0466AF" points="73.578,67.484 91.496,77.832 104.303,70.441 		"/>
	</g>
	<g>
		<g>
			<polygon fill="#19B8F7" points="98.605,81.611 112.541,73.564 112.541,90.637 98.605,98.684 			"/>
			<polyline fill="#199BDB" points="98.605,98.684 98.605,81.611 112.541,73.564 			"/>
			<polygon fill="#044F99" points="84.668,73.564 98.605,81.611 98.605,98.684 84.668,90.637 			"/>
			<polyline fill="#044F99" points="84.668,73.564 98.605,81.611 98.605,98.684 			"/>
			<polygon fill="#12C7FF" points="84.668,73.564 98.605,65.518 112.541,73.564 98.605,81.611 			"/>
			<polyline fill="#19B8F7" points="112.541,73.564 98.605,81.611 84.668,73.564 			"/>
		</g>
		<g>
			<g>
				<polygon fill="#070606" points="100.494,87.338 100.494,90.789 103.498,89.055 103.477,85.617 				"/>
				<polygon fill="#070606" points="107.648,83.18 107.648,86.631 110.652,84.896 110.632,81.459 				"/>
			</g>
			<g>
				<polyline fill="#333232" points="100.494,90.789 103.498,89.055 103.477,85.617 				"/>
				<polyline fill="#333232" points="107.648,86.631 110.652,84.896 110.632,81.459 				"/>
			</g>
		</g>
	</g>
	<g>
		<polygon fill="#FF8B00" points="101.506,93.771 107.475,89.086 108.514,91.727 		"/>
		<polygon fill="#FFD348" points="107.475,89.086 110.274,88.684 108.514,91.727 		"/>
	</g>
</g>
</svg>
