<?xml version="1.0" encoding="utf-8"?>
<!-- Generator: Adobe Illustrator 16.0.0, SVG Export Plug-In . SVG Version: 6.00 Build 0)  -->
<!DOCTYPE svg PUBLIC "-//W3C//DTD SVG 1.1//EN" "http://www.w3.org/Graphics/SVG/1.1/DTD/svg11.dtd">
<svg version="1.1" id="Layer_1" xmlns="http://www.w3.org/2000/svg" xmlns:xlink="http://www.w3.org/1999/xlink" x="0px" y="0px"
	 width="130px" height="130px" viewBox="0 0 130 130" enable-background="new 0 0 130 130" xml:space="preserve">
<g>
	<polygon fill="#B5C4C3" points="94.828,46.768 110.243,37.862 98.675,31.184 77.39,24.141 	"/>
	<g>
		<g>
			<g>
				<g>
					<polygon fill="#BCC4C4" points="20.149,18.065 28.72,22.996 20.149,27.989 11.579,22.996 					"/>
					<polygon fill="#4F5A5B" points="11.579,22.996 20.149,27.989 20.149,67.359 11.579,62.411 					"/>
					<polyline fill="#717F7F" points="11.579,22.996 20.149,27.989 20.149,67.359 					"/>
					<polygon fill="#66C6C6" points="28.72,22.996 20.149,27.989 20.149,67.359 28.72,62.411 					"/>
					<polyline fill="#5BAEB2" points="28.72,22.996 20.149,27.989 20.149,67.359 					"/>
				</g>
				<g>
					<polygon fill="#9FA4A5" points="48.684,116.401 70.013,104.088 80.678,110.244 59.347,122.558 					"/>
					<g>
						<g>
							<polygon fill="#7E8C8B" points="68.508,82.296 79.108,88.416 79.108,111.211 68.508,105.092 							"/>
							<polyline fill="#717F7F" points="68.508,82.296 79.108,88.416 79.108,111.211 							"/>
							<polygon fill="#475454" points="89.709,82.296 79.108,88.416 79.108,111.211 89.709,105.092 							"/>
							<polyline fill="#586666" points="89.709,82.296 79.108,88.416 79.108,111.211 							"/>
						</g>
						<g>
							<polygon fill="#FFA300" points="80.4,110.287 80.4,107.742 82.603,106.469 82.603,109.014 							"/>
							<polygon fill="#FFA300" points="83.478,108.518 83.478,105.974 85.683,104.701 85.683,107.246 							"/>
							<polygon fill="#FFA300" points="86.557,106.75 86.557,104.205 88.761,102.932 88.761,105.477 							"/>
						</g>
					</g>
					<g>
						<g>
							<polygon fill="#7E8C8B" points="42.174,97.52 52.773,103.64 52.773,126.434 42.174,120.315 							"/>
							<polyline fill="#717F7F" points="42.174,97.52 52.773,103.64 52.773,126.434 							"/>
							<polygon fill="#475454" points="63.374,97.52 52.773,103.64 52.773,126.434 63.374,120.315 							"/>
							<polyline fill="#586666" points="63.374,97.52 52.773,103.64 52.773,126.434 							"/>
						</g>
						<g>
							<polygon fill="#FFA300" points="54.066,125.51 54.066,122.966 56.269,121.693 56.269,124.238 							"/>
							<polygon fill="#FFA300" points="57.144,123.742 57.144,121.197 59.347,119.924 59.347,122.47 							"/>
							<polygon fill="#FFA300" points="60.222,121.973 60.222,119.429 62.425,118.156 62.425,120.7 							"/>
						</g>
					</g>
				</g>
				<g>
					<polygon fill="#9FA4A5" points="7.51,92.609 28.838,80.297 39.503,86.453 18.172,98.766 					"/>
					<g>
						<g>
							<polygon fill="#559CA3" points="27.333,58.505 37.934,64.625 37.934,87.419 27.333,81.3 							"/>
							<polyline fill="#4A858E" points="27.333,58.505 37.934,64.625 37.934,87.419 							"/>
							<polygon fill="#417682" points="48.534,58.505 37.934,64.625 37.934,87.419 48.534,81.3 							"/>
							<polyline fill="#316068" points="48.534,58.505 37.934,64.625 37.934,87.419 							"/>
						</g>
						<g>
							<polygon fill="#F9CE46" points="39.225,86.495 39.225,83.951 41.428,82.678 41.428,85.224 							"/>
							<polygon fill="#F9CE46" points="42.303,84.727 42.303,82.183 44.508,80.909 44.508,83.454 							"/>
							<polygon fill="#F9CE46" points="45.381,82.959 45.381,80.414 47.586,79.141 47.586,81.686 							"/>
						</g>
					</g>
					<g>
						<g>
							<polygon fill="#7E8C8B" points="1,73.728 11.599,79.848 11.599,102.643 1,96.524 							"/>
							<polyline fill="#717F7F" points="1,73.728 11.599,79.848 11.599,102.643 							"/>
							<polygon fill="#475454" points="22.199,73.728 11.599,79.848 11.599,102.643 22.199,96.524 							"/>
							<polyline fill="#586666" points="22.199,73.728 11.599,79.848 11.599,102.643 							"/>
						</g>
						<g>
							<polygon fill="#FFA300" points="12.892,101.719 12.892,99.175 15.094,97.902 15.094,100.447 							"/>
							<polygon fill="#FFA300" points="15.969,99.949 15.969,97.406 18.172,96.133 18.172,98.678 							"/>
							<polygon fill="#FFA300" points="19.048,98.182 19.048,95.637 21.25,94.364 21.25,96.91 							"/>
						</g>
					</g>
				</g>
				<g>
					<g>
						<g>
							<g>
								<g>
									<polygon fill="#7E8C8B" points="1,35.199 52.732,65.074 52.732,103.751 1,73.875 									"/>
									<polyline fill="#717F7F" points="1,35.199 52.732,65.074 52.732,103.751 									"/>
									<polygon fill="#586666" points="52.732,65.074 52.732,103.751 89.709,82.413 89.709,43.736 									"/>
								</g>
								<polygon fill="#A1AFAF" points="52.732,65.074 89.709,43.736 37.962,13.859 1,35.199 								"/>
								<polyline fill="#8C9A9B" points="1,35.199 52.732,65.074 89.709,43.736 								"/>
							</g>
							<g>
								<g>
									<polygon fill="#798889" points="79.033,53.715 105.467,38.453 105.467,81.904 79.033,97.164 									"/>
									<polyline fill="#677677" points="79.033,97.164 79.033,53.715 105.467,38.453 									"/>
									<polygon fill="#7E8C8B" points="52.598,38.453 79.033,53.715 79.033,97.164 52.598,81.904 									"/>
									<polyline fill="#717F7F" points="52.598,38.453 79.033,53.715 79.033,97.164 									"/>
									<polygon fill="#A1AFAF" points="52.598,38.453 79.033,23.191 105.467,38.453 79.033,53.715 									"/>
									<polyline fill="#8C9A9B" points="105.467,38.453 79.033,53.715 52.598,38.453 									"/>
									<polygon fill="#677677" points="79.032,30.925 72.128,26.902 72.128,49.729 79.032,53.715 85.938,49.729 85.938,26.902 
																			"/>
									<polygon fill="#677677" points="59.501,42.438 66.407,46.426 66.407,38.453 59.501,38.453 									"/>
								</g>
								<g>
									<g>
										<polygon fill="#070606" points="84.309,57.661 84.309,61.442 87.601,59.543 87.577,55.775 										"/>
										<polygon fill="#070606" points="98.396,49.502 98.396,53.284 101.688,51.384 101.665,47.616 										"/>
									</g>
									<g>
										<polyline fill="#333232" points="84.309,61.442 87.601,59.543 87.577,55.775 										"/>
										<polyline fill="#333232" points="98.396,53.284 101.688,51.384 101.665,47.616 										"/>
									</g>
								</g>
							</g>
							<g>
								<g>
									<polygon fill="#9B5145" points="100.043,86.168 118.756,75.363 118.756,91.725 100.043,102.529 									"/>
									<polyline fill="#9B5145" points="100.043,102.529 100.043,86.168 118.756,75.363 									"/>
									<polygon fill="#B76E5F" points="81.329,75.363 100.043,86.168 100.043,102.529 81.329,91.725 									"/>
									<polyline fill="#B76E5F" points="81.329,75.363 100.043,86.168 100.043,102.529 									"/>
									<polygon fill="#8C9A9B" points="81.329,75.363 100.043,64.56 118.756,75.363 100.043,86.168 									"/>
									<polyline fill="#798889" points="118.756,75.363 100.043,86.168 81.329,75.363 									"/>
								</g>
								<g>
									<polygon fill="#F4ABA2" points="104.36,78.703 127.487,65.35 127.487,85.571 104.36,98.924 									"/>
									<polyline fill="#E29F91" points="104.36,98.924 104.36,78.703 127.487,65.35 									"/>
									<polygon fill="#C47972" points="81.232,65.35 104.36,78.703 104.36,98.924 81.232,85.571 									"/>
									<polyline fill="#B76E5F" points="81.232,65.35 104.36,78.703 104.36,98.924 									"/>
									<polygon fill="#E29F91" points="81.232,65.35 104.36,51.997 127.487,65.35 104.36,78.703 									"/>
									<polyline fill="#D88B79" points="127.487,65.35 104.36,78.703 81.232,65.35 									"/>
								</g>
							</g>
						</g>
					</g>
				</g>
			</g>
			<g>
				<polygon fill="#EAD98F" points="59.501,14.604 66.407,18.578 59.501,22.6 52.597,18.578 				"/>
				<polygon fill="#DDCB80" points="52.597,18.578 59.501,22.6 59.501,42.4 52.597,38.414 				"/>
				<polyline fill="#CCBA72" points="52.597,18.578 59.501,22.6 59.501,42.4 				"/>
				<polygon fill="#F9E8A5" points="66.407,18.578 59.501,22.6 59.501,42.4 66.407,38.414 				"/>
				<polyline fill="#EFDE95" points="66.407,18.578 59.501,22.6 59.501,42.4 				"/>
			</g>
			<g>
				<polygon fill="#EAD98F" points="79.033,3.566 85.938,7.539 79.033,11.561 72.128,7.539 				"/>
				<polygon fill="#DDCB80" points="72.128,7.539 79.033,11.561 79.033,31.361 72.128,27.375 				"/>
				<polyline fill="#CCBA72" points="72.128,7.539 79.033,11.561 79.033,31.361 				"/>
				<polygon fill="#F9E8A5" points="85.938,7.539 79.033,11.561 79.033,31.361 85.938,27.375 				"/>
				<polyline fill="#EFDE95" points="85.938,7.539 79.033,11.561 79.033,31.361 				"/>
			</g>
		</g>
	</g>
	<polygon fill="#B5C4C3" points="66.407,46.38 66.407,62.123 52.775,69.975 37.934,61.442 52.631,38.453 	"/>
	<polyline fill="#A1AFAF" points="66.407,46.38 66.407,62.123 52.775,69.975 37.934,61.442 	"/>
	<polyline fill="#8C9A9B" points="66.407,46.38 66.407,62.123 52.775,69.975 	"/>
	<g>
		<polygon fill="#BC5A50" points="129,69.889 129,75.354 112.542,84.855 112.542,79.391 		"/>
		<polygon fill="#A85A52" points="124.207,67.188 129,69.957 112.544,79.454 107.754,76.684 		"/>
		<g>
			<polyline fill="#8C4C42" points="107.754,76.684 112.542,79.452 112.542,84.855 107.746,82.088 			"/>
		</g>
	</g>
</g>
</svg>
