<?xml version="1.0" encoding="utf-8"?>
<!-- Generator: Adobe Illustrator 16.0.0, SVG Export Plug-In . SVG Version: 6.00 Build 0)  -->
<!DOCTYPE svg PUBLIC "-//W3C//DTD SVG 1.1//EN" "http://www.w3.org/Graphics/SVG/1.1/DTD/svg11.dtd">
<svg version="1.1" id="Layer_1" xmlns="http://www.w3.org/2000/svg" xmlns:xlink="http://www.w3.org/1999/xlink" x="0px" y="0px"
	 width="130px" height="130px" viewBox="0 0 130 130" enable-background="new 0 0 130 130" xml:space="preserve">
<g>
	<polygon fill="#9FA4A5" points="48.304,121.063 75.848,105.161 89.621,113.112 62.075,129.014 	"/>
	<g>
		<g>
			<polygon fill="#D0E2E1" points="51.324,6.75 26.777,20.922 26.775,51.173 51.324,37 			"/>
			<polyline fill="#B8C9C9" points="51.324,6.75 26.777,20.922 26.775,51.173 			"/>
			<polygon fill="#879293" points="26.777,20.922 24.73,19.742 24.73,49.992 26.77,51.169 			"/>
			<polygon fill="#D0E2E1" points="51.324,6.75 49.279,5.569 24.73,19.742 26.777,20.922 			"/>
		</g>
		<g>
			<g>
				<g>
					<polygon fill="#FFD348" points="82.695,85.261 82.77,101.123 75.81,105.14 75.81,89.238 					"/>
					<polygon fill="#FFAA45" points="68.924,101.165 75.81,105.14 75.81,89.238 68.85,85.218 					"/>
					<polyline fill="#CC861F" points="75.81,89.238 68.85,85.218 68.924,101.165 					"/>
				</g>
				<g>
					<polygon fill="#FFAA45" points="68.924,101.165 68.924,109.115 82.77,117.109 82.77,109.137 					"/>
					<polygon fill="#FFD348" points="89.582,105.14 89.582,113.091 82.77,117.109 82.77,109.137 					"/>
					<polygon fill="#FF8B00" points="82.77,101.123 89.582,105.14 82.77,109.137 75.847,105.14 					"/>
				</g>
			</g>
			<g>
				<g>
					<polygon fill="#FFD348" points="62.076,97.209 62.15,113.069 55.188,117.087 55.188,101.184 					"/>
					<polygon fill="#FFAA45" points="48.304,113.133 55.188,117.108 55.188,101.206 48.229,97.187 					"/>
					<polyline fill="#FF8B00" points="55.188,101.206 48.229,97.187 48.304,113.133 					"/>
				</g>
				<g>
					<polygon fill="#FFAA45" points="48.304,113.133 48.304,121.084 62.15,129.079 62.15,121.106 					"/>
					<polygon fill="#FFD348" points="68.962,117.108 68.962,125.06 62.15,129.079 62.15,121.106 					"/>
					<polygon fill="#FFD348" points="68.924,109.115 82.77,117.109 82.77,114.379 68.924,106.384 					"/>
					<polygon fill="#FFAA45" points="82.77,117.109 89.582,113.091 89.582,110.361 82.77,114.379 					"/>
					<polygon fill="#FFD348" points="48.304,121.084 62.15,129.079 62.15,126.349 48.304,118.354 					"/>
					<polygon fill="#FFAA45" points="62.15,129.079 68.962,125.06 68.962,122.33 62.15,126.349 					"/>
					<polygon fill="#FF8B00" points="62.15,113.091 68.962,117.108 62.15,121.106 55.226,117.108 					"/>
				</g>
			</g>
		</g>
		<g>
			<g>
				<g>
					<polygon fill="#95A4A5" points="59.204,62.812 96.901,41.043 96.901,87.227 59.204,108.991 					"/>
					<polyline fill="#657272" points="59.204,108.991 59.204,62.812 96.901,41.043 					"/>
					<polygon fill="#B8C9C9" points="21.5,41.043 59.204,62.812 59.204,108.991 21.5,87.227 					"/>
					<polyline fill="#95A4A5" points="21.5,41.043 59.204,62.812 59.204,108.991 					"/>
					<polygon fill="#E4EFEE" points="21.5,41.043 59.204,19.277 96.901,41.043 59.204,62.812 					"/>
					<polyline fill="#D0E2E1" points="96.901,41.043 59.204,62.812 21.5,41.043 					"/>
				</g>
			</g>
			<g>
				<g>
					<polygon fill="#D0E2E1" points="79.406,38.929 108.5,22.131 108.5,57.772 79.406,74.57 					"/>
					<polyline fill="#B8C9C9" points="79.406,74.57 79.406,38.929 108.5,22.131 					"/>
					<polygon fill="#95A4A5" points="50.31,22.131 79.406,38.929 79.406,74.57 50.31,57.772 					"/>
					<polyline fill="#879293" points="50.31,22.131 79.406,38.929 79.406,74.57 					"/>
					<polygon fill="#E4EFEE" points="50.31,22.131 79.406,5.333 108.5,22.131 79.406,38.929 					"/>
					<polyline fill="#D0E2E1" points="108.5,22.131 79.406,38.929 50.31,22.131 					"/>
					<polygon fill="#B8C9C9" points="79.406,38.929 87.315,34.362 87.315,13.087 87.306,13.093 78.077,7.755 75.323,9.256 
						75.313,9.25 75.313,9.262 75.31,9.264 75.313,9.266 75.313,9.598 73.667,8.646 68.932,11.379 68.932,32.882 					"/>
				</g>
				<g>
					<g>
						<polygon fill="#070606" points="83.349,50.886 83.349,58.091 89.621,54.472 89.576,47.293 						"/>
						<polygon fill="#070606" points="98.285,42.204 98.285,49.408 104.557,45.789 104.513,38.611 						"/>
					</g>
					<g>
						<polyline fill="#333232" points="83.349,58.091 89.621,54.472 89.576,47.293 						"/>
						<polyline fill="#333232" points="98.285,49.408 104.557,45.789 104.513,38.611 						"/>
					</g>
				</g>
			</g>
		</g>
		<g>
			<polygon fill="#C43205" points="86.484,62.748 98.206,53.546 100.246,58.731 			"/>
			<polygon fill="#DB611D" points="98.206,53.546 103.704,52.758 100.246,58.731 			"/>
		</g>
		<g>
			<polygon fill="#FF9100" points="76.62,20.005 76.62,6.589 78.811,5.309 78.811,18.725 			"/>
			<polygon fill="#DB611D" points="76.62,20.005 76.62,6.589 68.932,2.151 68.932,15.567 			"/>
			<polyline fill="#C43205" points="76.62,20.005 76.62,6.589 68.932,2.151 			"/>
			<g>
				<polygon fill="#FF9100" points="78.811,5.319 76.62,6.599 68.928,2.163 71.207,0.921 				"/>
				<polyline fill="#F76116" points="78.811,5.319 76.62,6.599 68.928,2.163 				"/>
			</g>
		</g>
		<g>
			<polygon fill="#FF9100" points="84.655,24.643 84.655,8.341 87.315,6.785 87.315,23.086 			"/>
			<polygon fill="#DB611D" points="84.655,24.643 84.655,8.341 75.313,2.948 75.313,19.25 			"/>
			<polyline fill="#C43205" points="84.655,24.643 84.655,8.341 75.313,2.948 			"/>
			<g>
				<polygon fill="#FF9100" points="87.315,6.796 84.655,8.353 75.31,2.961 78.077,1.453 				"/>
				<polyline fill="#F76116" points="87.315,6.796 84.655,8.353 75.31,2.961 				"/>
			</g>
		</g>
	</g>
</g>
</svg>
