<?xml version="1.0" encoding="utf-8"?>
<!-- Generator: Adobe Illustrator 16.0.0, SVG Export Plug-In . SVG Version: 6.00 Build 0)  -->
<!DOCTYPE svg PUBLIC "-//W3C//DTD SVG 1.1//EN" "http://www.w3.org/Graphics/SVG/1.1/DTD/svg11.dtd">
<svg version="1.1" id="Layer_1" xmlns="http://www.w3.org/2000/svg" xmlns:xlink="http://www.w3.org/1999/xlink" x="0px" y="0px"
	 width="130px" height="130px" viewBox="0 0 130 130" enable-background="new 0 0 130 130" xml:space="preserve">
<g>
	<polygon fill="#070606" points="94.828,41.621 110.243,32.716 98.676,26.037 77.391,18.994 	"/>
	<g>
		<g>
			<g>
				<g>
					<polygon fill="#252526" points="20.15,12.919 28.721,17.85 20.15,22.843 11.579,17.85 					"/>
					<polygon fill="#4F5A5B" points="11.579,17.85 20.15,22.843 20.15,62.213 11.579,57.265 					"/>
					<polyline fill="#070606" points="11.579,17.85 20.15,22.843 20.15,62.213 					"/>
					<polygon fill="#66C6C6" points="28.721,17.85 20.15,22.843 20.15,62.213 28.721,57.265 					"/>
					<polyline fill="#5BAEB2" points="28.721,17.85 20.15,22.843 20.15,62.213 					"/>
				</g>
				<g>
					<polygon fill="#9FA4A5" points="48.684,111.255 70.014,98.941 80.679,105.098 59.348,117.411 					"/>
					<g>
						<g>
							<polygon fill="#7E8C8B" points="68.509,77.149 79.109,83.27 79.109,106.064 68.509,99.945 							"/>
							<polyline fill="#B0C6C5" points="68.509,77.149 79.109,83.27 79.109,106.064 							"/>
							<polygon fill="#475454" points="89.709,77.149 79.109,83.27 79.109,106.064 89.709,99.945 							"/>
							<polyline fill="#9AB2B0" points="89.709,77.149 79.109,83.27 79.109,106.064 							"/>
						</g>
						<g>
							<polygon fill="#FFA300" points="80.4,105.141 80.4,102.596 82.604,101.322 82.604,103.867 							"/>
							<polygon fill="#FFA300" points="83.479,103.371 83.479,100.827 85.684,99.555 85.684,102.1 							"/>
							<polygon fill="#FFA300" points="86.557,101.604 86.557,99.059 88.762,97.785 88.762,100.33 							"/>
						</g>
					</g>
					<g>
						<g>
							<polygon fill="#7E8C8B" points="42.174,92.373 52.773,98.493 52.773,121.287 42.174,115.169 							"/>
							<polyline fill="#B0C6C5" points="42.174,92.373 52.773,98.493 52.773,121.287 							"/>
							<polygon fill="#475454" points="63.374,92.373 52.773,98.493 52.773,121.287 63.374,115.169 							"/>
							<polyline fill="#9AB2B0" points="63.374,92.373 52.773,98.493 52.773,121.287 							"/>
						</g>
						<g>
							<polygon fill="#FFA300" points="54.066,120.363 54.066,117.819 56.27,116.547 56.27,119.092 							"/>
							<polygon fill="#FFA300" points="57.145,118.596 57.145,116.051 59.348,114.777 59.348,117.323 							"/>
							<polygon fill="#FFA300" points="60.223,116.826 60.223,114.282 62.426,113.01 62.426,115.554 							"/>
						</g>
					</g>
				</g>
				<g>
					<polygon fill="#9FA4A5" points="7.51,87.463 28.838,75.15 39.504,81.307 18.173,93.619 					"/>
					<g>
						<g>
							<polygon fill="#559CA3" points="27.334,53.358 37.934,59.479 37.934,82.272 27.334,76.153 							"/>
							<polyline fill="#4A858E" points="27.334,53.358 37.934,59.479 37.934,82.272 							"/>
							<polygon fill="#417682" points="48.534,53.358 37.934,59.479 37.934,82.272 48.534,76.153 							"/>
							<polyline fill="#316068" points="48.534,53.358 37.934,59.479 37.934,82.272 							"/>
						</g>
						<g>
							<polygon fill="#F9CE46" points="39.226,81.349 39.226,78.805 41.429,77.531 41.429,80.077 							"/>
							<polygon fill="#F9CE46" points="42.304,79.58 42.304,77.036 44.508,75.763 44.508,78.308 							"/>
							<polygon fill="#F9CE46" points="45.382,77.812 45.382,75.268 47.586,73.994 47.586,76.539 							"/>
						</g>
					</g>
					<g>
						<g>
							<polygon fill="#7E8C8B" points="1,68.581 11.6,74.701 11.6,97.496 1,91.378 							"/>
							<polyline fill="#B0C6C5" points="1,68.581 11.6,74.701 11.6,97.496 							"/>
							<polygon fill="#475454" points="22.199,68.581 11.6,74.701 11.6,97.496 22.199,91.378 							"/>
							<polyline fill="#9AB2B0" points="22.199,68.581 11.6,74.701 11.6,97.496 							"/>
						</g>
						<g>
							<polygon fill="#FFA300" points="12.893,96.572 12.893,94.028 15.094,92.756 15.094,95.301 							"/>
							<polygon fill="#FFA300" points="15.969,94.803 15.969,92.26 18.173,90.986 18.173,93.531 							"/>
							<polygon fill="#FFA300" points="19.049,93.035 19.049,90.49 21.251,89.218 21.251,91.764 							"/>
						</g>
					</g>
				</g>
				<g>
					<g>
						<g>
							<g>
								<g>
									<polygon fill="#C1D3D1" points="1,30.053 52.732,59.928 52.732,98.604 1,68.729 									"/>
									<polyline fill="#B0C6C5" points="1,30.053 52.732,59.928 52.732,98.604 									"/>
									<polygon fill="#9AB2B0" points="52.732,59.928 52.732,98.604 89.709,77.267 89.709,38.59 									"/>
									<polygon fill="#7E8C8B" points="6.3,56.803 14.206,61.368 14.206,67.279 6.3,62.714 									"/>
									<polygon fill="#7E8C8B" points="24.768,65.672 32.674,70.237 32.674,76.148 24.768,71.583 									"/>
									<polygon fill="#7E8C8B" points="18.247,48.12 26.153,52.686 26.153,58.597 18.247,54.031 									"/>
									<polygon fill="#7E8C8B" points="39.453,64.184 47.359,68.749 47.359,74.66 39.453,70.095 									"/>
								</g>
								<polygon fill="#F5FFFD" points="52.732,59.928 89.709,38.59 37.963,8.713 1,30.053 								"/>
								<polyline fill="#DDF2EE" points="1,30.053 52.732,59.928 89.709,38.59 								"/>
								<polygon fill="#B0C6C5" points="40.089,24.424 43.467,22.476 38.74,19.746 35.364,21.695 								"/>
								<polygon fill="#B0C6C5" points="36.038,37.746 39.416,35.797 34.689,33.068 31.313,35.018 								"/>
								<polygon fill="#B0C6C5" points="25.108,28.554 28.486,26.605 23.76,23.876 20.384,25.825 								"/>
								<polygon fill="#B0C6C5" points="49.357,38.435 52.735,36.486 48.009,33.757 44.633,35.706 								"/>
							</g>
							<g>
								<g>
									<polygon fill="#DDF2EE" points="79.033,48.568 105.467,33.307 105.467,76.758 79.033,92.018 									"/>
									<polyline fill="#D1E5E2" points="79.033,92.018 79.033,48.568 105.467,33.307 									"/>
									<polygon fill="#93A3A2" points="52.599,33.307 79.033,48.568 79.033,92.018 52.599,76.758 									"/>
									<polyline fill="#7E8C8B" points="52.599,33.307 79.033,48.568 79.033,92.018 									"/>
									<polygon fill="#F5FFFD" points="52.599,33.307 79.033,18.045 105.467,33.307 79.033,48.568 									"/>
									<polyline fill="#DDF2EE" points="105.467,33.307 79.033,48.568 52.599,33.307 									"/>
									<polygon fill="#D1E5E2" points="79.033,25.778 72.129,21.756 72.129,44.582 79.033,48.568 85.938,44.582 85.938,21.756 
																			"/>
									<polygon fill="#D1E5E2" points="59.502,37.292 66.408,41.279 66.408,33.307 59.502,33.307 									"/>
								</g>
								<g>
									<g>
										<polygon fill="#070606" points="84.309,52.515 84.309,56.296 87.602,54.396 87.578,50.629 										"/>
										<polygon fill="#070606" points="98.396,44.355 98.396,48.138 101.688,46.237 101.665,42.47 										"/>
									</g>
									<g>
										<polyline fill="#333232" points="84.309,56.296 87.602,54.396 87.578,50.629 										"/>
										<polyline fill="#333232" points="98.396,48.138 101.688,46.237 101.665,42.47 										"/>
									</g>
								</g>
							</g>
							<g>
								<g>
									<polygon fill="#9B5145" points="100.043,81.021 118.756,70.217 118.756,86.578 100.043,97.383 									"/>
									<polyline fill="#9B5145" points="100.043,97.383 100.043,81.021 118.756,70.217 									"/>
									<polygon fill="#B76E5F" points="81.329,70.217 100.043,81.021 100.043,97.383 81.329,86.578 									"/>
									<polyline fill="#B76E5F" points="81.329,70.217 100.043,81.021 100.043,97.383 									"/>
									<polygon fill="#8C9A9B" points="81.329,70.217 100.043,59.413 118.756,70.217 100.043,81.021 									"/>
									<polyline fill="#798889" points="118.756,70.217 100.043,81.021 81.329,70.217 									"/>
								</g>
								<g>
									<polygon fill="#F4ABA2" points="104.361,73.557 127.487,60.203 127.487,80.425 104.361,93.777 									"/>
									<polyline fill="#E29F91" points="104.361,93.777 104.361,73.557 127.487,60.203 									"/>
									<polygon fill="#C47972" points="81.232,60.203 104.361,73.557 104.361,93.777 81.232,80.425 									"/>
									<polyline fill="#B76E5F" points="81.232,60.203 104.361,73.557 104.361,93.777 									"/>
									<polygon fill="#E29F91" points="81.232,60.203 104.361,46.851 127.487,60.203 104.361,73.557 									"/>
									<polyline fill="#D88B79" points="127.487,60.203 104.361,73.557 81.232,60.203 									"/>
								</g>
							</g>
						</g>
					</g>
				</g>
			</g>
			<g>
				<g>
					<polygon fill="#EAD98F" points="59.502,20.458 66.408,24.432 59.502,28.453 52.598,24.432 					"/>
					<polygon fill="#DDCB80" points="52.598,24.432 59.502,28.453 59.502,37.254 52.598,33.268 					"/>
					<polyline fill="#CCBA72" points="52.598,24.432 59.502,28.453 59.502,37.254 					"/>
					<polygon fill="#F9E8A5" points="66.408,24.432 59.502,28.453 59.502,37.254 66.408,33.268 					"/>
					<polyline fill="#EFDE95" points="66.408,24.432 59.502,28.453 59.502,37.254 					"/>
				</g>
				<g>
					<polygon fill="#EAD98F" points="79.033,9.42 85.939,13.393 79.033,17.414 72.129,13.393 					"/>
					<polygon fill="#DDCB80" points="72.129,13.393 79.033,17.414 79.033,26.215 72.129,22.229 					"/>
					<polyline fill="#CCBA72" points="72.129,13.393 79.033,17.414 79.033,26.215 					"/>
					<polygon fill="#F9E8A5" points="85.939,13.393 79.033,17.414 79.033,26.215 85.939,22.229 					"/>
					<polyline fill="#EFDE95" points="85.939,13.393 79.033,17.414 79.033,26.215 					"/>
				</g>
			</g>
		</g>
	</g>
	<polygon fill="#070606" points="66.408,41.233 66.408,56.977 52.775,64.828 37.934,56.296 52.631,33.307 	"/>
	<polyline fill="#252526" points="66.408,41.233 66.408,56.977 52.775,64.828 37.934,56.296 	"/>
	<polyline fill="#070606" points="66.408,41.233 66.408,56.977 52.775,64.828 	"/>
	<g>
		<polygon fill="#BC5A50" points="129,64.742 129,70.207 112.542,79.709 112.542,74.244 		"/>
		<polygon fill="#A85A52" points="124.207,62.041 129,64.811 112.545,74.308 107.754,71.537 		"/>
		<g>
			<polyline fill="#8C4C42" points="107.754,71.537 112.542,74.306 112.542,79.709 107.746,76.941 			"/>
		</g>
	</g>
</g>
</svg>
