<?xml version="1.0" encoding="utf-8"?>
<!-- Generator: Adobe Illustrator 16.0.0, SVG Export Plug-In . SVG Version: 6.00 Build 0)  -->
<!DOCTYPE svg PUBLIC "-//W3C//DTD SVG 1.1//EN" "http://www.w3.org/Graphics/SVG/1.1/DTD/svg11.dtd">
<svg version="1.1" id="Layer_1" xmlns="http://www.w3.org/2000/svg" xmlns:xlink="http://www.w3.org/1999/xlink" x="0px" y="0px"
	 width="130px" height="130px" viewBox="0 0 130 130" enable-background="new 0 0 130 130" xml:space="preserve">
<g>
	<g>
		<polyline fill="#333232" points="107.04,47.162 108.594,46.244 108.614,26.33 107.04,27.232 107.04,47.162 		"/>
		<polygon fill="#545454" points="107.065,27.234 108.614,26.344 71.636,5 70.095,5.889 		"/>
		<polygon fill="#070606" points="70.075,5.89 70.075,25.814 107.048,47.162 107.048,27.235 		"/>
	</g>
	<g>
		<g>
			<g>
				<path fill="#657575" d="M26.938,48.015c-1.443,0-2.612-1.169-2.612-2.612V32.995l-10.602-5.999l-1.326-2.273v-5.593
					l-4.862-2.809L6.231,14.06V3.611C6.231,2.169,7.399,1,8.843,1c1.442,0,2.612,1.169,2.612,2.611v8.939l4.862,2.808l1.306,2.262
					v5.58l10.602,5.999l1.325,2.273v13.93C29.55,46.845,28.381,48.015,26.938,48.015z"/>
			</g>
			<g>
				<g>
					<g>
						<polygon fill="#444F4F" points="88.139,76.347 88.228,95.407 79.864,100.234 79.864,81.125 						"/>
						<polygon fill="#657575" points="71.59,95.457 79.864,100.234 79.864,81.125 71.5,76.295 						"/>
						<polyline fill="#748786" points="79.864,81.125 71.5,76.295 71.59,95.457 						"/>
					</g>
					<g>
						<polygon fill="#9FA4A5" points="46.812,119.369 79.91,100.259 96.46,109.813 63.36,128.922 						"/>
						<polygon fill="#657575" points="71.59,95.457 71.59,105.011 88.228,114.617 88.228,105.037 						"/>
						<polygon fill="#90A5A4" points="96.414,100.234 96.414,109.789 88.228,114.617 88.228,105.037 						"/>
						<polygon fill="#748786" points="88.228,95.407 96.414,100.234 88.228,105.037 79.909,100.234 						"/>
					</g>
				</g>
				<g>
					<g>
						<polygon fill="#444F4F" points="63.362,90.704 63.451,109.763 55.085,114.59 55.085,95.481 						"/>
						<polygon fill="#657575" points="46.812,109.839 55.085,114.616 55.085,95.506 46.723,90.678 						"/>
						<polyline fill="#748786" points="55.085,95.506 46.723,90.678 46.812,109.839 						"/>
					</g>
					<g>
						<polygon fill="#657575" points="46.812,109.839 46.812,119.394 63.451,129 63.451,119.42 						"/>
						<polygon fill="#90A5A4" points="71.636,114.616 71.636,124.171 63.451,129 63.451,119.42 						"/>
						<polygon fill="#748786" points="71.59,105.011 88.228,114.617 88.228,111.336 71.59,101.729 						"/>
						<polygon fill="#657575" points="88.228,114.617 96.414,109.789 96.414,106.508 88.228,111.336 						"/>
						<polygon fill="#748786" points="46.812,119.394 63.451,129 63.451,125.72 46.812,116.113 						"/>
						<polygon fill="#657575" points="63.451,129 71.636,124.171 71.636,120.891 63.451,125.72 						"/>
						<polygon fill="#748786" points="63.451,109.789 71.636,114.616 63.451,119.42 55.13,114.616 						"/>
					</g>
				</g>
			</g>
			<g>
				<g>
					<g>
						<polygon fill="#333232" points="49.648,54.104 49.737,73.164 41.373,77.991 41.373,58.882 						"/>
						<polygon fill="#070606" points="33.1,73.214 41.373,77.991 41.373,58.882 33.01,54.052 						"/>
						<polyline fill="#333232" points="41.373,58.882 33.01,54.052 33.1,73.214 						"/>
					</g>
					<g>
						<polygon fill="#9FA4A5" points="8.321,97.125 41.419,78.016 57.97,87.57 24.87,106.679 						"/>
						<polygon fill="#070606" points="33.1,73.214 33.1,82.768 49.737,92.374 49.737,82.793 						"/>
						<polygon fill="#474747" points="57.923,77.991 57.923,87.546 49.737,92.374 49.737,82.793 						"/>
						<polygon fill="#666564" points="49.737,73.164 57.923,77.991 49.737,82.793 41.418,77.991 						"/>
					</g>
				</g>
				<g>
					<g>
						<polygon fill="#444F4F" points="24.871,68.461 24.961,87.52 16.595,92.347 16.595,73.238 						"/>
						<polygon fill="#657575" points="8.321,87.596 16.595,92.373 16.595,73.263 8.232,68.435 						"/>
						<polyline fill="#748786" points="16.595,73.263 8.232,68.435 8.321,87.596 						"/>
					</g>
					<g>
						<polygon fill="#657575" points="8.321,87.596 8.321,97.15 24.961,106.757 24.961,97.176 						"/>
						<polygon fill="#90A5A4" points="33.146,92.373 33.146,101.928 24.961,106.757 24.961,97.176 						"/>
						<polygon fill="#474747" points="33.1,82.768 49.737,92.374 49.737,89.093 33.1,79.486 						"/>
						<polygon fill="#070606" points="49.737,92.374 57.923,87.546 57.923,84.264 49.737,89.093 						"/>
						<polygon fill="#748786" points="8.321,97.15 24.961,106.757 24.961,103.477 8.321,93.87 						"/>
						<polygon fill="#657575" points="24.961,106.757 33.146,101.928 33.146,98.647 24.961,103.477 						"/>
						<polygon fill="#748786" points="24.961,87.546 33.146,92.373 24.961,97.176 16.639,92.373 						"/>
					</g>
				</g>
			</g>
			<g>
				<g>
					<polygon fill="#748786" points="8.232,37.313 54.854,64.235 54.854,98.091 8.232,71.167 					"/>
					<polyline fill="#657575" points="8.232,37.313 54.854,64.235 54.854,98.091 					"/>
					<polygon fill="#444F4F" points="54.854,64.235 54.854,98.091 88.176,78.861 88.176,45.006 					"/>
				</g>
				<polygon fill="#CAD8D6" points="54.854,64.235 88.176,45.006 41.542,18.082 8.232,37.313 				"/>
				<polyline fill="#AEC4C2" points="8.232,37.313 54.854,64.235 88.176,45.006 				"/>
			</g>
			<g>
				<polygon fill="#C1350A" points="83.063,55.382 83.063,62.633 61.222,75.244 61.222,67.989 				"/>
				<polygon fill="#FC9B00" points="76.703,51.797 83.063,55.472 61.226,68.075 54.869,64.397 				"/>
				<g>
					<polyline fill="#F74000" points="54.869,64.397 61.222,68.072 61.222,75.244 54.859,71.569 					"/>
				</g>
			</g>
			<g>
				<g>
					<polygon fill="#AEC4C2" points="83.098,45.973 111.337,29.667 111.337,64.263 83.098,80.567 					"/>
					<polyline fill="#90A5A4" points="83.098,80.567 83.098,45.973 111.337,29.667 					"/>
					<polygon fill="#657575" points="54.855,29.667 83.098,45.973 83.098,80.567 54.855,64.263 					"/>
					<polyline fill="#556363" points="54.855,29.667 83.098,45.973 83.098,80.567 					"/>
					<polygon fill="#CAD8D6" points="54.855,29.667 83.098,13.363 111.337,29.667 83.098,45.973 					"/>
					<polyline fill="#AEC4C2" points="111.337,29.667 83.098,45.973 54.855,29.667 					"/>
				</g>
				<g>
					<g>
						<polygon fill="#070606" points="86.924,48.916 86.924,55.908 93.013,52.395 92.969,45.427 						"/>
						<polygon fill="#070606" points="101.423,40.488 101.423,47.48 107.51,43.967 107.467,37 						"/>
					</g>
					<g>
						<polyline fill="#333232" points="86.924,55.908 93.013,52.395 92.969,45.427 						"/>
						<polyline fill="#333232" points="101.423,47.48 107.51,43.967 107.467,37 						"/>
					</g>
				</g>
			</g>
			<g>
				<g>
					<polygon fill="#AEC4C2" points="106.238,66.065 122.171,56.865 122.171,76.385 106.238,85.584 					"/>
					<polyline fill="#90A5A4" points="106.238,85.584 106.238,66.065 122.171,56.865 					"/>
					<polygon fill="#657575" points="109.246,73.016 109.246,74.588 110.615,73.798 110.605,72.232 					"/>
					<polygon fill="#657575" points="109.246,75.953 109.246,77.524 110.615,76.735 110.605,75.169 					"/>
					<polygon fill="#657575" points="111.69,76.856 111.69,78.428 113.059,77.638 113.049,76.072 					"/>
					<polygon fill="#657575" points="119.273,71.838 119.273,73.41 120.642,72.621 120.632,71.055 					"/>
					<polygon fill="#657575" points="117.045,70.612 117.045,72.184 118.414,71.394 118.404,69.828 					"/>
					<polygon fill="#657575" points="90.302,56.865 106.238,66.065 106.238,85.584 90.302,76.385 					"/>
					<polyline fill="#556363" points="90.302,56.865 106.238,66.065 106.238,85.584 					"/>
					<polygon fill="#CAD8D6" points="90.302,56.865 106.238,47.666 122.171,56.865 106.238,66.065 					"/>
					<polyline fill="#AEC4C2" points="122.171,56.865 106.238,66.065 90.302,56.865 					"/>
				</g>
			</g>
			<g>
				<polygon fill="#545454" points="123.769,60.021 123.769,64.032 111.69,71.006 111.69,66.994 				"/>
				<polygon fill="#333232" points="120.251,58.039 123.769,60.072 111.692,67.042 108.177,65.008 				"/>
				<g>
					<polyline fill="#070606" points="108.177,65.008 111.69,67.04 111.69,71.006 108.171,68.974 					"/>
				</g>
			</g>
		</g>
		<polygon fill="#CAD8D6" points="45.891,40.734 48.425,42.198 39.724,47.22 37.191,45.754 		"/>
		<polygon fill="#AEC4C2" points="95.624,25.757 98.158,27.221 89.457,32.243 86.924,30.777 		"/>
		<polygon fill="#CC861F" points="51.287,29 53.821,30.464 45.12,35.486 42.587,34.021 		"/>
		<polygon fill="#AEC4C2" points="31.287,32.243 33.821,33.708 25.12,38.729 22.587,37.264 		"/>
		<polygon fill="#CAD8D6" points="51.287,47.566 53.821,49.03 45.12,54.052 42.587,52.586 		"/>
		<polygon fill="#AEC4C2" points="79.398,21.264 81.933,22.729 73.232,27.75 70.699,26.285 		"/>
		<polygon fill="#AEC4C2" points="41.845,20.488 44.379,21.953 35.679,26.974 33.146,25.509 		"/>
	</g>
	<g>
		<polyline fill="#333232" points="78.16,64.839 79.714,63.921 79.734,44.007 78.16,44.91 78.16,64.839 		"/>
		<polygon fill="#545454" points="78.186,44.911 79.734,44.021 42.756,22.677 41.215,23.566 		"/>
		<polygon fill="#070606" points="41.195,23.567 41.195,43.492 78.168,64.839 78.168,44.913 		"/>
	</g>
</g>
</svg>
