<?xml version="1.0" encoding="utf-8"?>
<!-- Generator: Adobe Illustrator 16.0.0, SVG Export Plug-In . SVG Version: 6.00 Build 0)  -->
<!DOCTYPE svg PUBLIC "-//W3C//DTD SVG 1.1//EN" "http://www.w3.org/Graphics/SVG/1.1/DTD/svg11.dtd">
<svg version="1.1" id="Layer_1" xmlns="http://www.w3.org/2000/svg" xmlns:xlink="http://www.w3.org/1999/xlink" x="0px" y="0px"
	 width="130px" height="130px" viewBox="0 0 130 130" enable-background="new 0 0 130 130" xml:space="preserve">
<g>
	<g>
		<polygon fill="#E55028" points="117.381,2.364 89.029,18.733 89.027,53.67 117.381,37.302 		"/>
		<polyline fill="#D14215" points="117.381,2.364 89.029,18.733 89.027,53.67 		"/>
		<polygon fill="#66C6C6" points="89.029,18.733 86.664,17.37 86.664,52.308 89.02,53.667 		"/>
		<polygon fill="#7DDBD8" points="117.381,2.364 115.02,1 86.664,17.37 89.029,18.733 		"/>
	</g>
	<g>
		<g>
			<g>
				<polygon fill="#7DDBD8" points="31.551,12.072 40.799,17.393 31.551,22.78 22.303,17.393 				"/>
				<polygon fill="#559CA3" points="22.303,17.393 31.551,22.78 31.551,65.259 22.303,59.92 				"/>
				<polyline fill="#4A858E" points="22.303,17.393 31.551,22.78 31.551,65.259 				"/>
				<polygon fill="#66C6C6" points="40.799,17.393 31.551,22.78 31.551,65.259 40.799,59.92 				"/>
				<polyline fill="#5BAEB2" points="40.799,17.393 31.551,22.78 31.551,65.259 				"/>
			</g>
			<g>
				<polygon fill="#9FA4A5" points="62.34,118.175 85.354,104.889 96.859,111.532 73.846,124.817 				"/>
				<g>
					<g>
						<polygon fill="#559CA3" points="83.729,81.375 95.166,87.979 95.166,112.574 83.729,105.972 						"/>
						<polyline fill="#4A858E" points="83.729,81.375 95.166,87.979 95.166,112.574 						"/>
						<polygon fill="#417682" points="106.604,81.375 95.166,87.979 95.166,112.574 106.604,105.972 						"/>
						<polyline fill="#316068" points="106.604,81.375 95.166,87.979 95.166,112.574 						"/>
					</g>
					<g>
						<polygon fill="#F9CE46" points="96.561,111.578 96.561,108.832 98.938,107.458 98.938,110.205 						"/>
						<polygon fill="#F9CE46" points="99.881,109.669 99.881,106.924 102.26,105.55 102.26,108.296 						"/>
						<polygon fill="#F9CE46" points="103.203,107.761 103.203,105.015 105.58,103.642 105.58,106.388 						"/>
					</g>
				</g>
				<g>
					<g>
						<polygon fill="#559CA3" points="55.314,97.801 66.752,104.405 66.752,129 55.314,122.398 						"/>
						<polyline fill="#4A858E" points="55.314,97.801 66.752,104.405 66.752,129 						"/>
						<polygon fill="#417682" points="78.189,97.801 66.752,104.405 66.752,129 78.189,122.398 						"/>
						<polyline fill="#316068" points="78.189,97.801 66.752,104.405 66.752,129 						"/>
					</g>
					<g>
						<polygon fill="#F9CE46" points="68.146,128.003 68.146,125.258 70.523,123.884 70.523,126.63 						"/>
						<polygon fill="#F9CE46" points="71.467,126.095 71.467,123.35 73.846,121.977 73.846,124.722 						"/>
						<polygon fill="#F9CE46" points="74.789,124.187 74.789,121.441 77.166,120.068 77.166,122.814 						"/>
					</g>
				</g>
			</g>
			<g>
				<polygon fill="#9FA4A5" points="17.914,92.505 40.926,79.219 52.434,85.861 29.418,99.147 				"/>
				<g>
					<g>
						<polygon fill="#559CA3" points="39.303,55.706 50.74,62.309 50.74,86.904 39.303,80.301 						"/>
						<polyline fill="#4A858E" points="39.303,55.706 50.74,62.309 50.74,86.904 						"/>
						<polygon fill="#417682" points="62.178,55.706 50.74,62.309 50.74,86.904 62.178,80.301 						"/>
						<polyline fill="#316068" points="62.178,55.706 50.74,62.309 50.74,86.904 						"/>
					</g>
					<g>
						<polygon fill="#F9CE46" points="52.135,85.907 52.135,83.161 54.512,81.788 54.512,84.535 						"/>
						<polygon fill="#F9CE46" points="55.455,83.999 55.455,81.253 57.834,79.88 57.834,82.626 						"/>
						<polygon fill="#F9CE46" points="58.777,82.091 58.777,79.345 61.154,77.972 61.154,80.717 						"/>
					</g>
				</g>
				<g>
					<g>
						<polygon fill="#559CA3" points="10.889,72.131 22.326,78.735 22.326,103.33 10.889,96.728 						"/>
						<polyline fill="#4A858E" points="10.889,72.131 22.326,78.735 22.326,103.33 						"/>
						<polygon fill="#417682" points="33.764,72.131 22.326,78.735 22.326,103.33 33.764,96.728 						"/>
						<polyline fill="#316068" points="33.764,72.131 22.326,78.735 22.326,103.33 						"/>
					</g>
					<g>
						<polygon fill="#F9CE46" points="23.721,102.333 23.721,99.587 26.098,98.214 26.098,100.96 						"/>
						<polygon fill="#F9CE46" points="27.041,100.424 27.041,97.679 29.418,96.306 29.418,99.052 						"/>
						<polygon fill="#F9CE46" points="30.363,98.516 30.363,95.771 32.74,94.397 32.74,97.144 						"/>
					</g>
				</g>
			</g>
			<g>
				<g>
					<polyline fill="#5BAEB2" points="113.834,82.774 114.83,82.186 114.844,32.232 113.834,32.811 113.834,82.774 					"/>
					<polygon fill="#66C6C6" points="113.85,32.812 114.844,32.241 91.137,18.558 90.148,19.127 					"/>
					<polygon fill="#234D51" points="90.137,19.128 90.137,69.088 113.84,82.774 113.84,32.812 					"/>
				</g>
				<g>
					<g>
						<g>
							<g>
								<polygon fill="#417682" points="10.889,30.56 66.707,62.793 66.707,104.526 10.889,72.29 								"/>
								<polyline fill="#316068" points="10.889,30.56 66.707,62.793 66.707,104.526 								"/>
								<polygon fill="#234D51" points="66.707,62.793 66.707,104.526 106.604,81.502 106.604,39.771 								"/>
								<g>
									<polygon fill="#7DDBD8" points="95.166,61.543 100.215,64.447 95.166,67.387 90.119,64.447 									"/>
									<polygon fill="#FFED80" points="90.119,64.447 95.166,67.387 95.166,90.573 90.119,87.659 									"/>
									<polyline fill="#F2E164" points="90.119,64.447 95.166,67.387 95.166,90.573 									"/>
									<polygon fill="#F9CE46" points="100.215,64.447 95.166,67.387 95.166,90.573 100.215,87.659 									"/>
									<polyline fill="#E2B330" points="100.215,64.447 95.166,67.387 95.166,90.573 									"/>
								</g>
							</g>
							<polygon fill="#63C1C1" points="66.707,62.793 106.604,39.771 50.77,7.534 10.889,30.56 							"/>
							<polyline fill="#5BAEB2" points="10.889,30.56 66.707,62.793 106.604,39.771 							"/>
						</g>
						<g>
							<g>
								<polygon fill="#66C6C6" points="90.123,48.021 118.41,31.688 118.41,66.341 90.123,82.673 								"/>
								<polyline fill="#5BAEB2" points="90.123,82.673 90.123,48.021 118.41,31.688 								"/>
								<polygon fill="#559CA3" points="61.832,31.688 90.123,48.021 90.123,82.673 61.832,66.341 								"/>
								<polyline fill="#4A858E" points="61.832,31.688 90.123,48.021 90.123,82.673 								"/>
								<polygon fill="#7DDBD8" points="61.832,31.688 90.123,15.356 118.41,31.688 90.123,48.021 								"/>
								<polyline fill="#66C6C6" points="118.41,31.688 90.123,48.021 61.832,31.688 								"/>
							</g>
							<g>
								<g>
									<polygon fill="#070606" points="95.768,52.244 95.768,56.291 99.291,54.257 99.266,50.226 									"/>
									<polygon fill="#070606" points="110.844,43.512 110.844,47.56 114.365,45.526 114.342,41.494 									"/>
								</g>
								<g>
									<polyline fill="#333232" points="95.768,56.291 99.291,54.257 99.266,50.226 									"/>
									<polyline fill="#333232" points="110.844,47.56 114.365,45.526 114.342,41.494 									"/>
								</g>
							</g>
						</g>
					</g>
				</g>
			</g>
			<g>
				<polygon fill="#7DDBD8" points="109.373,47.903 118.623,53.224 109.373,58.611 100.127,53.224 				"/>
				<polygon fill="#559CA3" points="100.127,53.224 109.373,58.611 109.373,101.091 100.127,95.751 				"/>
				<polyline fill="#4A858E" points="100.127,53.224 109.373,58.611 109.373,101.091 				"/>
				<polygon fill="#66C6C6" points="118.623,53.224 109.373,58.611 109.373,101.091 118.623,95.751 				"/>
				<polyline fill="#5BAEB2" points="118.623,53.224 109.373,58.611 109.373,101.091 				"/>
			</g>
			<g>
				<polygon fill="#7DDBD8" points="119.111,58.671 119.111,60.666 113.102,64.136 113.102,62.14 				"/>
				<polygon fill="#559CA3" points="117.361,57.684 119.111,58.695 113.104,62.163 111.352,61.151 				"/>
				<g>
					<polyline fill="#4A858E" points="111.352,61.151 113.102,62.163 113.102,64.136 111.352,63.125 					"/>
				</g>
			</g>
			<g>
				<polygon fill="#7DDBD8" points="119.111,66.371 119.111,68.365 113.102,71.836 113.102,69.84 				"/>
				<polygon fill="#559CA3" points="117.361,65.384 119.111,66.395 113.104,69.862 111.352,68.851 				"/>
				<g>
					<polyline fill="#4A858E" points="111.352,68.851 113.102,69.862 113.102,71.836 111.352,70.825 					"/>
				</g>
			</g>
			<g>
				<polygon fill="#7DDBD8" points="119.111,74.071 119.111,76.065 113.102,79.536 113.102,77.54 				"/>
				<polygon fill="#559CA3" points="117.361,73.084 119.111,74.095 113.104,77.562 111.352,76.55 				"/>
				<g>
					<polyline fill="#4A858E" points="111.352,76.55 113.102,77.562 113.102,79.536 111.352,78.525 					"/>
				</g>
			</g>
			<g>
				<polygon fill="#7DDBD8" points="119.111,81.771 119.111,83.766 113.102,87.236 113.102,85.24 				"/>
				<polygon fill="#559CA3" points="117.361,80.784 119.111,81.795 113.104,85.263 111.352,84.25 				"/>
				<g>
					<polyline fill="#4A858E" points="111.352,84.25 113.102,85.263 113.102,87.236 111.352,86.225 					"/>
				</g>
			</g>
			<g>
				<polygon fill="#7DDBD8" points="119.111,89.471 119.111,91.465 113.102,94.936 113.102,92.94 				"/>
				<polygon fill="#559CA3" points="117.361,88.484 119.111,89.495 113.104,92.962 111.352,91.951 				"/>
				<g>
					<polyline fill="#4A858E" points="111.352,91.951 113.102,92.962 113.102,94.936 111.352,93.925 					"/>
				</g>
			</g>
		</g>
		<g>
			<polygon fill="#E55028" points="64.246,33.053 35.893,49.422 35.893,84.36 64.246,67.991 			"/>
			<polyline fill="#D14215" points="64.246,67.991 64.246,33.053 35.893,49.422 			"/>
			<polygon fill="#66C6C6" points="35.893,49.422 33.529,48.059 33.529,82.997 35.885,84.356 			"/>
			<polygon fill="#7DDBD8" points="64.246,33.053 61.883,31.689 33.529,48.059 35.893,49.422 			"/>
		</g>
	</g>
</g>
</svg>
