<?xml version="1.0" encoding="utf-8"?>
<!-- Generator: Adobe Illustrator 16.0.0, SVG Export Plug-In . SVG Version: 6.00 Build 0)  -->
<!DOCTYPE svg PUBLIC "-//W3C//DTD SVG 1.1//EN" "http://www.w3.org/Graphics/SVG/1.1/DTD/svg11.dtd">
<svg version="1.1" id="Layer_1" xmlns="http://www.w3.org/2000/svg" xmlns:xlink="http://www.w3.org/1999/xlink" x="0px" y="0px"
	 width="130px" height="130px" viewBox="0 0 130 130" enable-background="new 0 0 130 130" xml:space="preserve">
<g>
	<g>
		<polygon fill="#7DDBD8" points="100.478,92.989 104.682,95.407 100.478,97.855 96.275,95.407 		"/>
		<polygon fill="#C9C29F" points="96.275,95.407 100.478,97.855 100.478,117.161 96.275,114.734 		"/>
		<polyline fill="#ADA687" points="96.275,95.407 100.478,97.855 100.478,117.161 		"/>
		<polygon fill="#ADA687" points="104.682,95.407 100.478,97.855 100.478,117.161 104.682,114.734 		"/>
		<polyline fill="#9B9372" points="104.682,95.407 100.478,97.855 100.478,117.161 		"/>
	</g>
	<g>
		<polygon fill="#7DDBD8" points="124.796,78.785 129,81.203 124.796,83.651 120.594,81.203 		"/>
		<polygon fill="#C9C29F" points="120.594,81.203 124.796,83.651 124.796,102.957 120.594,100.53 		"/>
		<polyline fill="#ADA687" points="120.594,81.203 124.796,83.651 124.796,102.957 		"/>
		<polygon fill="#ADA687" points="129,81.203 124.796,83.651 124.796,102.957 129,100.53 		"/>
		<polyline fill="#9B9372" points="129,81.203 124.796,83.651 124.796,102.957 		"/>
	</g>
	<g>
		<g>
			<polygon fill="#C99B79" points="18.204,25.912 25.904,30.342 18.204,34.828 10.504,30.342 			"/>
			<polygon fill="#6B563E" points="10.504,30.342 18.204,34.828 18.204,70.198 10.504,65.752 			"/>
			<polyline fill="#594A35" points="10.504,30.342 18.204,34.828 18.204,70.198 			"/>
			<polygon fill="#66C6C6" points="25.904,30.342 18.204,34.828 18.204,70.198 25.904,65.752 			"/>
			<polyline fill="#5BAEB2" points="25.904,30.342 18.204,34.828 18.204,70.198 			"/>
		</g>
		<g>
			<polygon fill="#9FA4A5" points="43.84,114.258 63.002,103.196 72.584,108.727 53.42,119.789 			"/>
			<g>
				<g>
					<polygon fill="#6B563E" points="61.65,83.617 71.174,89.116 71.174,109.595 61.65,104.098 					"/>
					<polyline fill="#594A35" points="61.65,83.617 71.174,89.116 71.174,109.595 					"/>
					<polygon fill="#594A35" points="80.697,83.617 71.174,89.116 71.174,109.595 80.697,104.098 					"/>
					<polyline fill="#3D3122" points="80.697,83.617 71.174,89.116 71.174,109.595 					"/>
				</g>
				<g>
					<polygon fill="#ADA687" points="72.334,108.765 72.334,106.479 74.313,105.335 74.313,107.622 					"/>
					<polygon fill="#ADA687" points="75.1,107.176 75.1,104.89 77.08,103.747 77.08,106.033 					"/>
					<polygon fill="#ADA687" points="77.865,105.587 77.865,103.301 79.846,102.157 79.846,104.444 					"/>
				</g>
			</g>
			<g>
				<g>
					<polygon fill="#6B563E" points="37.991,97.294 47.514,102.793 47.514,123.272 37.991,117.775 					"/>
					<polyline fill="#594A35" points="37.991,97.294 47.514,102.793 47.514,123.272 					"/>
					<polygon fill="#594A35" points="57.037,97.294 47.514,102.793 47.514,123.272 57.037,117.775 					"/>
					<polyline fill="#3D3122" points="57.037,97.294 47.514,102.793 47.514,123.272 					"/>
				</g>
				<g>
					<polygon fill="#ADA687" points="48.676,122.442 48.676,120.156 50.654,119.012 50.654,121.299 					"/>
					<polygon fill="#ADA687" points="51.44,120.853 51.44,118.567 53.42,117.423 53.42,119.71 					"/>
					<polygon fill="#ADA687" points="54.206,119.264 54.206,116.978 56.186,115.834 56.186,118.121 					"/>
				</g>
			</g>
		</g>
		<g>
			<polygon fill="#9FA4A5" points="6.849,92.884 26.01,81.821 35.592,87.352 16.428,98.415 			"/>
			<g>
				<g>
					<polygon fill="#559CA3" points="24.658,62.243 34.182,67.741 34.182,88.22 24.658,82.723 					"/>
					<polyline fill="#4A858E" points="24.658,62.243 34.182,67.741 34.182,88.22 					"/>
					<polygon fill="#417682" points="43.705,62.243 34.182,67.741 34.182,88.22 43.705,82.723 					"/>
					<polyline fill="#316068" points="43.705,62.243 34.182,67.741 34.182,88.22 					"/>
				</g>
				<g>
					<polygon fill="#F9CE46" points="35.342,87.39 35.342,85.104 37.321,83.96 37.321,86.248 					"/>
					<polygon fill="#F9CE46" points="38.107,85.802 38.107,83.516 40.088,82.372 40.088,84.658 					"/>
					<polygon fill="#F9CE46" points="40.873,84.213 40.873,81.926 42.854,80.783 42.854,83.069 					"/>
				</g>
			</g>
			<g>
				<g>
					<polygon fill="#6B563E" points="1,75.919 10.522,81.418 10.522,101.897 1,96.4 					"/>
					<polyline fill="#594A35" points="1,75.919 10.522,81.418 10.522,101.897 					"/>
					<polygon fill="#594A35" points="20.046,75.919 10.522,81.418 10.522,101.897 20.046,96.4 					"/>
					<polyline fill="#3D3122" points="20.046,75.919 10.522,81.418 10.522,101.897 					"/>
				</g>
				<g>
					<polygon fill="#ADA687" points="11.684,101.067 11.684,98.782 13.662,97.638 13.662,99.924 					"/>
					<polygon fill="#ADA687" points="14.448,99.478 14.448,97.193 16.428,96.049 16.428,98.335 					"/>
					<polygon fill="#ADA687" points="17.215,97.89 17.215,95.604 19.193,94.46 19.193,96.747 					"/>
				</g>
			</g>
		</g>
		<g>
			<g>
				<g>
					<g>
						<g>
							<polygon fill="#6B563E" points="1,41.306 47.477,68.145 47.477,102.893 1,76.052 							"/>
							<polyline fill="#594A35" points="1,41.306 47.477,68.145 47.477,102.893 							"/>
							<polygon fill="#3D3122" points="47.477,68.145 47.477,102.893 80.697,83.723 80.697,48.975 							"/>
						</g>
						<polygon fill="#AF8868" points="47.477,68.145 80.697,48.975 34.207,22.133 1,41.306 						"/>
						<polyline fill="#9B7A5C" points="1,41.306 47.477,68.145 80.697,48.975 						"/>
					</g>
					<g>
						<g>
							<polygon fill="#9B7A5C" points="71.94,49.637 100.462,33.169 100.462,80.051 71.94,96.517 							"/>
							<polyline fill="#84694E" points="71.94,96.517 71.94,49.637 100.462,33.169 							"/>
							<polygon fill="#6B563E" points="43.418,33.169 71.94,49.637 71.94,96.517 43.418,80.051 							"/>
							<polyline fill="#594A35" points="43.418,33.169 71.94,49.637 71.94,96.517 							"/>
							<polygon fill="#C99B79" points="43.418,33.169 71.94,16.703 100.462,33.169 71.94,49.637 							"/>
							<polyline fill="#AF8868" points="100.462,33.169 71.94,49.637 43.418,33.169 							"/>
							<polygon fill="#9B7A5C" points="71.94,23.971 64.24,19.485 64.24,45.139 71.94,49.585 79.642,45.139 79.642,19.485 							
								"/>
							<polygon fill="#9B7A5C" points="56.025,33.169 51.118,36.028 51.118,37.615 58.479,41.865 58.819,41.668 58.819,33.169 
															"/>
						</g>
						<g>
							<g>
								<polygon fill="#070606" points="77.633,53.895 77.633,57.974 81.186,55.924 81.16,51.859 								"/>
								<polygon fill="#070606" points="92.833,45.091 92.833,49.171 96.385,47.121 96.359,43.056 								"/>
							</g>
							<g>
								<polyline fill="#333232" points="77.633,57.974 81.186,55.924 81.16,51.859 								"/>
								<polyline fill="#333232" points="92.833,49.171 96.385,47.121 96.359,43.056 								"/>
							</g>
						</g>
					</g>
					<g>
						<g>
							<polygon fill="#E2AB86" points="100.479,78.023 129,61.556 129,96.495 100.479,112.96 							"/>
							<polyline fill="#C99B79" points="100.479,112.96 100.479,78.023 129,61.556 							"/>
							<polygon fill="#6B563E" points="71.956,61.556 100.479,78.023 100.479,112.96 71.956,96.495 							"/>
							<polyline fill="#594A35" points="71.956,61.556 100.479,78.023 100.479,112.96 							"/>
							<polygon fill="#AF8868" points="71.956,61.556 100.479,45.089 129,61.556 100.479,78.023 							"/>
							<polyline fill="#9B7A5C" points="129,61.556 100.479,78.023 71.956,61.556 							"/>
						</g>
						<g>
							<g>
								<polygon fill="#6B563E" points="106.171,82.281 106.171,86.361 109.724,84.311 109.698,80.246 								"/>
								<polygon fill="#6B563E" points="121.371,73.478 121.371,77.558 124.922,75.508 124.897,71.442 								"/>
							</g>
							<g>
								<polyline fill="#84694E" points="106.171,86.361 109.724,84.311 109.698,80.246 								"/>
								<polyline fill="#84694E" points="121.371,77.558 124.922,75.508 124.897,71.442 								"/>
							</g>
						</g>
					</g>
				</g>
			</g>
		</g>
	</g>
	<g>
		<polygon fill="#C99B79" points="51.118,18.684 58.819,23.115 51.118,27.6 43.418,23.115 		"/>
		<polygon fill="#A83976" points="43.418,23.115 51.118,27.6 51.118,37.686 43.418,33.24 		"/>
		<polyline fill="#8E265A" points="43.418,23.115 51.118,27.6 51.118,37.686 		"/>
		<polygon fill="#AF8868" points="58.819,23.115 51.118,27.6 51.118,37.686 58.819,33.24 		"/>
		<polyline fill="#9B7A5C" points="58.819,23.115 51.118,27.6 51.118,37.686 		"/>
	</g>
	<g>
		<polygon fill="#C99B79" points="71.94,6.728 79.642,11.159 71.94,15.645 64.24,11.159 		"/>
		<polygon fill="#6B563E" points="64.24,11.159 71.94,15.645 71.94,25.73 64.24,21.284 		"/>
		<polyline fill="#594A35" points="64.24,11.159 71.94,15.645 71.94,25.73 		"/>
		<polygon fill="#AF8868" points="79.642,11.159 71.94,15.645 71.94,25.73 79.642,21.284 		"/>
		<polyline fill="#9B7A5C" points="79.642,11.159 71.94,15.645 71.94,25.73 		"/>
	</g>
</g>
</svg>
