<?xml version="1.0" encoding="utf-8"?>
<!-- Generator: Adobe Illustrator 16.0.0, SVG Export Plug-In . SVG Version: 6.00 Build 0)  -->
<!DOCTYPE svg PUBLIC "-//W3C//DTD SVG 1.1//EN" "http://www.w3.org/Graphics/SVG/1.1/DTD/svg11.dtd">
<svg version="1.1" id="Layer_1" xmlns="http://www.w3.org/2000/svg" xmlns:xlink="http://www.w3.org/1999/xlink" x="0px" y="0px"
	 width="130px" height="130px" viewBox="0 0 130 130" enable-background="new 0 0 130 130" xml:space="preserve">
<g>
	<g>
		<path fill="#AD5173" d="M31.2,26.07c-0.258,0-0.519-0.066-0.758-0.204l-10.514-6.07l-0.759-1.314V2.294L21.481,1l7.009,4.3
			l0.724,1.294v7.841l-2.275,1.314l-3.505-2.023c-0.726-0.419-0.975-1.347-0.556-2.073c0.42-0.726,1.348-0.975,2.073-0.556
			l1.228,0.709V7.443l-3.974-2.438v12.6l9.755,5.632c0.727,0.419,0.975,1.348,0.556,2.073C32.234,25.797,31.725,26.069,31.2,26.07z"
			/>
	</g>
	<g>
		<g>
			<g>
				<g>
					<polygon fill="#C99B79" points="25.944,30.499 33.735,34.981 25.944,39.52 18.154,34.981 					"/>
					<polygon fill="#6B563E" points="18.154,34.981 25.944,39.52 25.944,75.305 18.154,70.807 					"/>
					<polyline fill="#594A35" points="18.154,34.981 25.944,39.52 25.944,75.305 					"/>
					<polygon fill="#66C6C6" points="33.735,34.981 25.944,39.52 25.944,75.305 33.735,70.807 					"/>
					<polyline fill="#5BAEB2" points="33.735,34.981 25.944,39.52 25.944,75.305 					"/>
				</g>
				<g>
					<polygon fill="#9FA4A5" points="51.881,119.881 71.268,108.688 80.962,114.284 61.573,125.477 					"/>
					<g>
						<g>
							<polygon fill="#C46089" points="69.899,88.881 79.535,94.443 79.535,115.163 69.899,109.601 							"/>
							<polyline fill="#AD5173" points="69.899,88.881 79.535,94.443 79.535,115.163 							"/>
							<polygon fill="#8E2F5A" points="89.17,88.881 79.535,94.443 79.535,115.163 89.17,109.601 							"/>
							<polyline fill="#752747" points="89.17,88.881 79.535,94.443 79.535,115.163 							"/>
						</g>
						<g>
							<polygon fill="#3BC9F4" points="80.709,114.323 80.709,112.01 82.712,110.853 82.712,113.166 							"/>
							<polygon fill="#3BC9F4" points="83.507,112.715 83.507,110.403 85.511,109.246 85.511,111.559 							"/>
							<polygon fill="#3BC9F4" points="86.305,111.108 86.305,108.795 88.309,107.638 88.309,109.951 							"/>
						</g>
					</g>
					<g>
						<g>
							<polygon fill="#C46089" points="45.964,102.718 55.598,108.281 55.598,129 45.964,123.438 							"/>
							<polyline fill="#AD5173" points="45.964,102.718 55.598,108.281 55.598,129 							"/>
							<polygon fill="#8E2F5A" points="65.233,102.718 55.598,108.281 55.598,129 65.233,123.438 							"/>
							<polyline fill="#752747" points="65.233,102.718 55.598,108.281 55.598,129 							"/>
						</g>
						<g>
							<polygon fill="#3BC9F4" points="56.773,128.16 56.773,125.847 58.774,124.69 58.774,127.004 							"/>
							<polygon fill="#3BC9F4" points="59.57,126.553 59.57,124.24 61.573,123.083 61.573,125.396 							"/>
							<polygon fill="#3BC9F4" points="62.368,124.945 62.368,122.632 64.371,121.476 64.371,123.788 							"/>
						</g>
					</g>
				</g>
				<g>
					<polygon fill="#9FA4A5" points="14.456,98.256 33.842,87.063 43.536,92.659 24.147,103.852 					"/>
					<g>
						<g>
							<polygon fill="#559CA3" points="32.475,67.256 42.109,72.818 42.109,93.538 32.475,87.976 							"/>
							<polyline fill="#4A858E" points="32.475,67.256 42.109,72.818 42.109,93.538 							"/>
							<polygon fill="#417682" points="51.745,67.256 42.109,72.818 42.109,93.538 51.745,87.976 							"/>
							<polyline fill="#316068" points="51.745,67.256 42.109,72.818 42.109,93.538 							"/>
						</g>
						<g>
							<polygon fill="#F9CE46" points="43.283,92.698 43.283,90.385 45.286,89.228 45.286,91.542 							"/>
							<polygon fill="#F9CE46" points="46.081,91.091 46.081,88.778 48.085,87.62 48.085,89.934 							"/>
							<polygon fill="#F9CE46" points="48.88,89.483 48.88,87.17 50.883,86.013 50.883,88.326 							"/>
						</g>
					</g>
					<g>
						<g>
							<polygon fill="#C46089" points="8.539,81.093 18.173,86.656 18.173,107.375 8.539,101.813 							"/>
							<polyline fill="#AD5173" points="8.539,81.093 18.173,86.656 18.173,107.375 							"/>
							<polygon fill="#8E2F5A" points="27.808,81.093 18.173,86.656 18.173,107.375 27.808,101.813 							"/>
							<polyline fill="#752747" points="27.808,81.093 18.173,86.656 18.173,107.375 							"/>
						</g>
						<g>
							<polygon fill="#3BC9F4" points="19.348,106.535 19.348,104.223 21.35,103.066 21.35,105.379 							"/>
							<polygon fill="#3BC9F4" points="22.146,104.927 22.146,102.615 24.147,101.458 24.147,103.771 							"/>
							<polygon fill="#3BC9F4" points="24.944,103.32 24.944,101.007 26.945,99.851 26.945,102.164 							"/>
						</g>
					</g>
				</g>
				<g>
					<g>
						<g>
							<g>
								<g>
									<polygon fill="#C46089" points="8.539,27.862 55.56,55.016 55.56,108.382 8.539,81.227 									"/>
									<polyline fill="#AD5173" points="8.539,27.862 55.56,55.016 55.56,108.382 									"/>
									<polygon fill="#752747" points="55.56,55.016 55.56,108.382 89.17,88.987 89.17,35.622 									"/>
								</g>
								<polygon fill="#DD7CAC" points="55.56,55.016 89.17,35.622 42.136,8.465 8.539,27.862 								"/>
								<polyline fill="#D36C9B" points="8.539,27.862 55.56,55.016 89.17,35.622 								"/>
							</g>
							<g>
								<g>
									<polygon fill="#DD7CAC" points="80.311,54.502 109.168,37.842 109.168,85.273 80.311,101.932 									"/>
									<polyline fill="#D36C9B" points="80.311,101.932 80.311,54.502 109.168,37.842 									"/>
									<polygon fill="#C46089" points="51.454,37.842 80.311,54.502 80.311,101.932 51.454,85.273 									"/>
									<polyline fill="#AD5173" points="51.454,37.842 80.311,54.502 80.311,101.932 									"/>
									<polygon fill="#F9A5D7" points="51.454,37.842 80.311,21.182 109.168,37.842 80.311,54.502 									"/>
									<polyline fill="#EA86BD" points="109.168,37.842 80.311,54.502 51.454,37.842 									"/>
									<polygon fill="#C46089" points="80.31,27.446 74.413,24.013 74.413,51.098 80.31,54.502 86.206,51.098 86.206,24.013 
																			"/>
									<polygon fill="#C46089" points="63.247,44.65 63.247,37.842 62.919,37.842 57.351,41.084 57.351,41.246 									"/>
								</g>
								<g>
									<g>
										<polygon fill="#070606" points="86.069,58.81 86.069,62.937 89.664,60.863 89.638,56.751 										"/>
										<polygon fill="#070606" points="101.448,49.903 101.448,54.031 105.042,51.957 105.016,47.844 										"/>
									</g>
									<g>
										<polyline fill="#333232" points="86.069,62.937 89.664,60.863 89.638,56.751 										"/>
										<polyline fill="#333232" points="101.448,54.031 105.042,51.957 105.016,47.844 										"/>
									</g>
								</g>
							</g>
						</g>
					</g>
				</g>
			</g>
			<g>
				<polygon fill="#F9A5D7" points="57.351,26.728 63.247,30.121 57.351,33.554 51.454,30.121 				"/>
				<polygon fill="#8E2F5A" points="51.454,30.121 57.351,33.554 57.351,41.277 51.454,37.873 				"/>
				<polyline fill="#752747" points="51.454,30.121 57.351,33.554 57.351,41.277 				"/>
				<polygon fill="#DD7CAC" points="63.247,30.121 57.351,33.554 57.351,41.277 63.247,37.873 				"/>
				<polyline fill="#D36C9B" points="63.247,30.121 57.351,33.554 57.351,41.277 				"/>
			</g>
			<g>
				<polygon fill="#F9A5D7" points="80.31,13.535 86.206,16.927 80.31,20.361 74.413,16.927 				"/>
				<polygon fill="#C46089" points="74.413,16.927 80.31,20.361 80.31,28.084 74.413,24.68 				"/>
				<polyline fill="#AD5173" points="74.413,16.927 80.31,20.361 80.31,28.084 				"/>
				<polygon fill="#DD7CAC" points="86.206,16.927 80.31,20.361 80.31,28.084 86.206,24.68 				"/>
				<polyline fill="#D36C9B" points="86.206,16.927 80.31,20.361 80.31,28.084 				"/>
			</g>
		</g>
		<g>
			<path fill="#F9A5D7" d="M81.437,82.367c0-9.321,6.58-20.734,14.619-25.372c4.281-2.473,8.142-2.548,10.806-0.673l10.369,5.985
				v21.631l-10.989,6.524V79.899c-2.455,4.25-5.76,8-9.408,10.378v7.952l-10.785-6.22v-0.003
				C83.216,90.563,81.437,87.215,81.437,82.367z"/>
			<path fill="#AD5173" d="M96.056,56.995c0.164-0.095,0.326-0.18,0.49-0.268l18.577,10.724v17.738l-8.882,5.273V79.899
				c-2.455,4.25-5.76,8-9.408,10.378v7.952l-10.785-6.22v-0.003c-2.832-1.442-4.611-4.791-4.611-9.639
				C81.437,73.046,88.017,61.633,96.056,56.995z"/>
			<path fill="#C46089" d="M86.048,92.006c-2.832-1.442-4.611-4.791-4.611-9.639c0-5.06,1.941-10.734,4.999-15.608l18.085,10.439
				v5.381c-2.191,3.125-4.83,5.835-7.688,7.698v7.952l-1.192-0.688v-7.894c-1.159,2.006-2.515,3.895-4.001,5.586l-5.592-3.225
				V92.006z"/>
			<path fill="#EA86BD" d="M106.846,97.009c7.994-4.666,14.574-16.081,14.615-25.354c0.041-9.298-6.504-13.086-14.538-8.453
				c-8.045,4.645-14.619,16.065-14.619,25.369C92.304,97.882,98.843,101.682,106.846,97.009z"/>
			<path fill="#DD7CAC" d="M106.923,63.202c-8.045,4.645-14.619,16.065-14.619,25.369c0,9.312,6.539,13.111,14.542,8.438"/>
			<path fill="#D36C9B" d="M106.856,91.976c5.612-3.276,10.231-11.29,10.261-17.799c0.029-6.527-4.566-9.187-10.207-5.935
				c-5.647,3.261-10.263,11.278-10.263,17.81C96.647,92.589,101.237,95.256,106.856,91.976z"/>
			<path fill="#C46089" d="M106.91,68.242c-5.647,3.261-10.263,11.278-10.263,17.81c0,6.537,4.59,9.205,10.209,5.924"/>
		</g>
	</g>
</g>
</svg>
