<?xml version="1.0" encoding="utf-8"?>
<!-- Generator: Adobe Illustrator 16.0.0, SVG Export Plug-In . SVG Version: 6.00 Build 0)  -->
<!DOCTYPE svg PUBLIC "-//W3C//DTD SVG 1.1//EN" "http://www.w3.org/Graphics/SVG/1.1/DTD/svg11.dtd">
<svg version="1.1" id="Layer_1" xmlns="http://www.w3.org/2000/svg" xmlns:xlink="http://www.w3.org/1999/xlink" x="0px" y="0px"
	 width="130px" height="130px" viewBox="0 0 130 130" enable-background="new 0 0 130 130" xml:space="preserve">
<g>
	<g>
		<g>
			<g>
				<polygon fill="#BCC4C4" points="18.204,25.912 25.904,30.342 18.204,34.828 10.504,30.342 				"/>
				<polygon fill="#4F5A5B" points="10.504,30.342 18.204,34.828 18.204,70.198 10.504,65.752 				"/>
				<polyline fill="#434E4F" points="10.504,30.342 18.204,34.828 18.204,70.198 				"/>
				<polygon fill="#66C6C6" points="25.904,30.342 18.204,34.828 18.204,70.198 25.904,65.752 				"/>
				<polyline fill="#5BAEB2" points="25.904,30.342 18.204,34.828 18.204,70.198 				"/>
			</g>
			<g>
				<polygon fill="#9FA4A5" points="43.84,114.258 63.002,103.196 72.584,108.727 53.42,119.789 				"/>
				<g>
					<g>
						<polygon fill="#4F5A5B" points="61.65,83.617 71.174,89.116 71.174,109.595 61.65,104.098 						"/>
						<polyline fill="#434E4F" points="61.65,83.617 71.174,89.116 71.174,109.595 						"/>
						<polygon fill="#434E4F" points="80.697,83.617 71.174,89.116 71.174,109.595 80.697,104.098 						"/>
						<polyline fill="#2C3535" points="80.697,83.617 71.174,89.116 71.174,109.595 						"/>
					</g>
					<g>
						<polygon fill="#FFA300" points="72.334,108.765 72.334,106.479 74.313,105.335 74.313,107.622 						"/>
						<polygon fill="#FFA300" points="75.1,107.176 75.1,104.89 77.08,103.747 77.08,106.033 						"/>
						<polygon fill="#FFA300" points="77.865,105.587 77.865,103.301 79.846,102.157 79.846,104.444 						"/>
					</g>
				</g>
				<g>
					<g>
						<polygon fill="#4F5A5B" points="37.991,97.294 47.514,102.793 47.514,123.272 37.991,117.775 						"/>
						<polyline fill="#434E4F" points="37.991,97.294 47.514,102.793 47.514,123.272 						"/>
						<polygon fill="#434E4F" points="57.037,97.294 47.514,102.793 47.514,123.272 57.037,117.775 						"/>
						<polyline fill="#2C3535" points="57.037,97.294 47.514,102.793 47.514,123.272 						"/>
					</g>
					<g>
						<polygon fill="#FFA300" points="48.676,122.442 48.676,120.156 50.654,119.012 50.654,121.299 						"/>
						<polygon fill="#FFA300" points="51.44,120.853 51.44,118.567 53.42,117.423 53.42,119.71 						"/>
						<polygon fill="#FFA300" points="54.206,119.264 54.206,116.978 56.186,115.834 56.186,118.121 						"/>
					</g>
				</g>
			</g>
			<g>
				<polygon fill="#9FA4A5" points="6.849,92.884 26.01,81.821 35.592,87.352 16.428,98.415 				"/>
				<g>
					<g>
						<polygon fill="#559CA3" points="24.658,62.243 34.182,67.741 34.182,88.22 24.658,82.723 						"/>
						<polyline fill="#4A858E" points="24.658,62.243 34.182,67.741 34.182,88.22 						"/>
						<polygon fill="#417682" points="43.705,62.243 34.182,67.741 34.182,88.22 43.705,82.723 						"/>
						<polyline fill="#316068" points="43.705,62.243 34.182,67.741 34.182,88.22 						"/>
					</g>
					<g>
						<polygon fill="#F9CE46" points="35.342,87.39 35.342,85.104 37.321,83.96 37.321,86.248 						"/>
						<polygon fill="#F9CE46" points="38.107,85.802 38.107,83.516 40.088,82.372 40.088,84.658 						"/>
						<polygon fill="#F9CE46" points="40.873,84.213 40.873,81.926 42.854,80.783 42.854,83.069 						"/>
					</g>
				</g>
				<g>
					<g>
						<polygon fill="#4F5A5B" points="1,75.919 10.522,81.418 10.522,101.897 1,96.4 						"/>
						<polyline fill="#434E4F" points="1,75.919 10.522,81.418 10.522,101.897 						"/>
						<polygon fill="#434E4F" points="20.046,75.919 10.522,81.418 10.522,101.897 20.046,96.4 						"/>
						<polyline fill="#2C3535" points="20.046,75.919 10.522,81.418 10.522,101.897 						"/>
					</g>
					<g>
						<polygon fill="#FFA300" points="11.684,101.067 11.684,98.782 13.662,97.638 13.662,99.924 						"/>
						<polygon fill="#FFA300" points="14.448,99.478 14.448,97.193 16.428,96.049 16.428,98.335 						"/>
						<polygon fill="#FFA300" points="17.215,97.89 17.215,95.604 19.193,94.46 19.193,96.747 						"/>
					</g>
				</g>
			</g>
			<g>
				<g>
					<g>
						<g>
							<g>
								<polygon fill="#4F5A5B" points="1,41.306 47.477,68.145 47.477,102.893 1,76.052 								"/>
								<polyline fill="#434E4F" points="1,41.306 47.477,68.145 47.477,102.893 								"/>
								<polygon fill="#2C3535" points="47.477,68.145 47.477,102.893 80.697,83.723 80.697,48.975 								"/>
							</g>
							<polygon fill="#A1AFAF" points="47.477,68.145 80.697,48.975 34.207,22.133 1,41.306 							"/>
							<polyline fill="#8C9A9B" points="1,41.306 47.477,68.145 80.697,48.975 							"/>
						</g>
						<g>
							<g>
								<polygon fill="#798889" points="71.94,49.637 100.462,33.169 100.462,80.051 71.94,96.517 								"/>
								<polyline fill="#677677" points="71.94,96.517 71.94,49.637 100.462,33.169 								"/>
								<polygon fill="#4F5A5B" points="43.418,33.169 71.94,49.637 71.94,96.517 43.418,80.051 								"/>
								<polyline fill="#434E4F" points="43.418,33.169 71.94,49.637 71.94,96.517 								"/>
								<polygon fill="#A1AFAF" points="43.418,33.169 71.94,16.703 100.462,33.169 71.94,49.637 								"/>
								<polyline fill="#8C9A9B" points="100.462,33.169 71.94,49.637 43.418,33.169 								"/>
								<polygon fill="#798889" points="71.94,24.8 64.24,20.314 64.24,45.139 71.94,49.584 79.642,45.139 79.642,20.314 								
									"/>
								<polygon fill="#798889" points="58.819,42.062 58.819,33.169 58.01,33.169 51.118,37.183 51.118,37.615 								"/>
							</g>
							<g>
								<g>
									<polygon fill="#070606" points="77.633,53.895 77.633,57.974 81.186,55.924 81.16,51.859 									"/>
									<polygon fill="#070606" points="92.833,45.091 92.833,49.171 96.385,47.121 96.359,43.056 									"/>
								</g>
								<g>
									<polyline fill="#333232" points="77.633,57.974 81.186,55.924 81.16,51.859 									"/>
									<polyline fill="#333232" points="92.833,49.171 96.385,47.121 96.359,43.056 									"/>
								</g>
							</g>
						</g>
						<g>
							<g>
								<polygon fill="#A1AFAF" points="100.479,78.686 129,62.218 129,87.157 100.479,103.623 								"/>
								<polyline fill="#8C9A9B" points="100.479,103.623 100.479,78.686 129,62.218 								"/>
								<polygon fill="#4F5A5B" points="71.956,62.218 100.479,78.686 100.479,103.623 71.956,87.157 								"/>
								<polyline fill="#434E4F" points="71.956,62.218 100.479,78.686 100.479,103.623 								"/>
								<polygon fill="#8C9A9B" points="71.956,62.218 100.479,45.751 129,62.218 100.479,78.686 								"/>
								<polyline fill="#798889" points="129,62.218 100.479,78.686 71.956,62.218 								"/>
								<polygon fill="#4F5A5B" points="107.236,74.784 116.797,69.264 116.797,62.218 107.236,62.218 								"/>
							</g>
							<g>
								<g>
									<polygon fill="#4F5A5B" points="109.76,76.833 109.76,79.424 112.017,78.122 112,75.541 									"/>
									<polygon fill="#4F5A5B" points="119.412,71.243 119.412,73.834 121.667,72.532 121.651,69.951 									"/>
								</g>
								<g>
									<polyline fill="#434E4F" points="109.76,79.424 112.017,78.122 112,75.541 									"/>
									<polyline fill="#434E4F" points="119.412,73.834 121.667,72.532 121.651,69.951 									"/>
								</g>
							</g>
						</g>
					</g>
				</g>
			</g>
		</g>
		<g>
			<polygon fill="#BCC4C4" points="51.118,18.684 58.819,23.115 51.118,27.6 43.418,23.115 			"/>
			<polygon fill="#B77E44" points="43.418,23.115 51.118,27.6 51.118,37.686 43.418,33.24 			"/>
			<polyline fill="#8C5E28" points="43.418,23.115 51.118,27.6 51.118,37.686 			"/>
			<polygon fill="#4F5A5B" points="58.819,23.115 51.118,27.6 51.118,37.686 58.819,33.24 			"/>
			<polyline fill="#657272" points="58.819,23.115 51.118,27.6 51.118,37.686 			"/>
		</g>
		<g>
			<polygon fill="#BCC4C4" points="71.94,6.728 79.642,11.159 71.94,15.645 64.24,11.159 			"/>
			<polygon fill="#4F5A5B" points="64.24,11.159 71.94,15.645 71.94,25.73 64.24,21.284 			"/>
			<polyline fill="#434E4F" points="64.24,11.159 71.94,15.645 71.94,25.73 			"/>
			<polygon fill="#4F5A5B" points="79.642,11.159 71.94,15.645 71.94,25.73 79.642,21.284 			"/>
			<polyline fill="#657272" points="79.642,11.159 71.94,15.645 71.94,25.73 			"/>
		</g>
	</g>
	<g>
		<polygon fill="#FFCE00" points="112.016,43.055 116.797,45.805 112.016,48.589 107.236,45.805 		"/>
		<polygon fill="#FFB600" points="107.236,45.805 112.016,48.589 112.016,70.544 107.236,67.785 		"/>
		<polyline fill="#FFA300" points="107.236,45.805 112.016,48.589 112.016,70.544 		"/>
		<polygon fill="#F98B12" points="116.797,45.805 112.016,48.589 112.016,70.544 116.797,67.785 		"/>
		<polyline fill="#E58005" points="116.797,45.805 112.016,48.589 112.016,70.544 		"/>
	</g>
</g>
</svg>
