<?xml version="1.0" encoding="utf-8"?>
<!-- Generator: Adobe Illustrator 16.0.0, SVG Export Plug-In . SVG Version: 6.00 Build 0)  -->
<!DOCTYPE svg PUBLIC "-//W3C//DTD SVG 1.1//EN" "http://www.w3.org/Graphics/SVG/1.1/DTD/svg11.dtd">
<svg version="1.1" id="Layer_1" xmlns="http://www.w3.org/2000/svg" xmlns:xlink="http://www.w3.org/1999/xlink" x="0px" y="0px"
	 width="130px" height="130px" viewBox="0 0 130 130" enable-background="new 0 0 130 130" xml:space="preserve">
<g>
	<g>
		<g>
			<g>
				<polygon fill="#2FBAD1" points="51.509,2.143 27.761,36.777 27.759,45.117 51.509,31.406 				"/>
				<polyline fill="#19809B" points="51.509,2.143 27.761,36.777 27.759,45.117 				"/>
				<polygon fill="#42517C" points="27.761,36.777 25.781,35.635 25.781,43.976 27.753,45.113 				"/>
				<polygon fill="#1A6C99" points="51.509,2.143 49.529,1 25.781,35.635 27.761,36.777 				"/>
			</g>
			<g>
				<g>
					<polygon fill="#399FB7" points="21.767,48.558 37.47,57.626 37.47,75.166 21.767,66.098 					"/>
					<polyline fill="#19809B" points="21.767,48.558 37.47,57.626 37.47,75.166 					"/>
					<polygon fill="#1A6C99" points="37.47,57.626 37.47,75.166 48.693,68.688 48.693,51.148 					"/>
				</g>
				<polygon fill="#32DBED" points="37.47,57.626 48.693,51.148 32.985,42.079 21.767,48.558 				"/>
				<polyline fill="#2FBAD1" points="21.767,48.558 37.47,57.626 48.693,51.148 				"/>
				<polygon fill="#399FB7" points="22.147,48.777 33.371,55.259 33.371,42.302 32.985,42.079 22.147,48.338 				"/>
			</g>
			<g>
				<g>
					<polygon fill="#077399" points="32.125,67.229 55.05,80.467 55.05,106.074 32.125,92.835 					"/>
					<polyline fill="#1A6C99" points="32.125,67.229 55.05,80.467 55.05,106.074 					"/>
					<polygon fill="#210803" points="55.05,80.467 55.05,106.074 71.436,96.618 71.436,71.012 					"/>
				</g>
				<polygon fill="#32DBED" points="55.05,80.467 71.436,71.012 48.504,57.771 32.125,67.229 				"/>
				<polyline fill="#2FBAD1" points="32.125,67.229 55.05,80.467 71.436,71.012 				"/>
			</g>
			<g>
				<g>
					<polygon fill="#5597A0" points="48.716,51.033 94.73,77.604 94.73,129 48.716,102.428 					"/>
					<polygon fill="#A3DFE2" points="82.021,87.574 82.021,97.685 94.73,105.019 94.73,94.908 					"/>
					<polyline fill="#318AAD" points="48.716,102.428 48.716,51.033 94.73,77.604 					"/>
					<polyline fill="#19809B" points="48.716,77.131 48.716,51.033 94.73,77.604 					"/>
					<g>
						<polygon fill="#32DBED" points="55.391,65.312 55.391,79.482 57.095,80.467 57.095,66.296 						"/>
					</g>
					<g>
						<polygon fill="#32DBED" points="59.053,67.229 59.053,81.4 60.757,82.385 60.757,68.214 						"/>
					</g>
					<g>
						<polygon fill="#32DBED" points="62.715,69.146 62.715,83.318 64.419,84.303 64.419,70.131 						"/>
					</g>
					<polygon fill="#A3DFE2" points="94.73,77.604 94.73,129 127.618,110.021 127.618,58.627 					"/>
					<polyline fill="#81C3C6" points="127.618,58.627 94.73,77.604 94.73,129 					"/>
					<polygon fill="#9FFFFF" points="94.73,105.019 127.618,86.04 127.618,75.93 94.73,94.908 					"/>
					<polygon fill="#D3E9F4" points="94.73,103.088 127.618,84.109 127.618,73.999 94.73,92.978 					"/>
					<polygon fill="#A9D3E0" points="94.73,96.701 127.618,77.723 127.618,73.999 94.73,92.978 					"/>
				</g>
				<polygon fill="#32DBED" points="94.73,77.604 127.618,58.627 81.593,32.052 48.716,51.033 				"/>
				<polyline fill="#2FBAD1" points="48.716,51.033 94.73,77.604 127.618,58.627 				"/>
				<polyline fill="#2FBAD1" points="48.716,51.033 94.73,77.604 127.618,58.627 				"/>
				<polygon fill="#259CB7" points="92.61,45.563 90.729,46.65 67.145,12.254 67.145,61.676 90.894,75.387 91.117,75.519 
					92.61,76.381 				"/>
				<polygon fill="#2A2D42" points="72.896,73.718 77.483,76.367 77.483,81.492 72.896,78.842 				"/>
				<polyline fill="#121426" points="72.896,73.718 77.483,76.367 77.483,81.492 				"/>
			</g>
			<polygon fill="#FFFFFF" points="82.021,85.644 82.021,95.754 94.73,103.088 94.73,92.978 			"/>
			<polygon fill="#D3E9F4" points="82.021,89.367 94.73,96.701 94.73,92.978 82.021,85.644 			"/>
			<g>
				<polygon fill="#2FBAD1" points="28.107,36.572 4.36,29.359 4.359,58.623 28.107,44.912 				"/>
				<polyline fill="#19809B" points="28.107,36.572 4.36,29.359 4.359,58.623 				"/>
				<polygon fill="#1A6C99" points="4.36,29.359 2.382,28.217 2.382,57.48 4.354,58.619 				"/>
				<polygon fill="#4F6499" points="28.107,36.572 26.13,35.431 2.382,28.217 4.36,29.359 				"/>
			</g>
		</g>
	</g>
	<g>
		<polygon fill="#19809B" points="67.145,11.479 90.893,46.113 90.894,54.453 67.145,40.742 		"/>
		<polyline fill="#0A6E91" points="67.145,11.479 90.893,46.113 90.894,54.453 		"/>
		<polygon fill="#399FB7" points="90.893,46.113 92.872,44.972 92.872,53.312 90.9,54.45 		"/>
		<polygon fill="#2FBAD1" points="67.145,11.479 69.124,10.337 92.872,44.972 90.893,46.113 		"/>
	</g>
	<g>
		<polygon fill="#32DBED" points="23.367,101.064 65.236,104.312 72.458,100.145 48.71,86.432 		"/>
		<polygon fill="#2FBAD1" points="48.716,86.436 48.716,102.428 63.035,94.703 		"/>
		<polyline fill="#2FBAD1" points="23.367,101.064 65.236,104.312 72.458,100.145 		"/>
		<polygon fill="#399FB7" points="65.236,104.312 65.236,106.598 72.459,102.428 72.459,100.151 		"/>
		<polygon fill="#19809B" points="23.367,101.064 23.367,103.35 65.236,106.598 65.236,104.312 		"/>
	</g>
</g>
</svg>
