<?xml version="1.0" encoding="utf-8"?>
<!-- Generator: Adobe Illustrator 16.0.0, SVG Export Plug-In . SVG Version: 6.00 Build 0)  -->
<!DOCTYPE svg PUBLIC "-//W3C//DTD SVG 1.1//EN" "http://www.w3.org/Graphics/SVG/1.1/DTD/svg11.dtd">
<svg version="1.1" id="Layer_1" xmlns="http://www.w3.org/2000/svg" xmlns:xlink="http://www.w3.org/1999/xlink" x="0px" y="0px"
	 width="130px" height="130px" viewBox="0 0 130 130" enable-background="new 0 0 130 130" xml:space="preserve">
<g>
	<g>
		<g>
			<g>
				<g>
					<polygon fill="#9FA4A5" points="61.858,117.651 85.985,103.723 98.05,110.686 73.92,124.615 					"/>
					<g>
						<g>
							<polygon fill="#A5913D" points="84.283,79.07 96.274,85.994 96.274,111.779 84.283,104.857 							"/>
							<polyline fill="#8E7D36" points="84.283,79.07 96.274,85.994 96.274,111.779 							"/>
							<polygon fill="#EFCF6A" points="108.266,79.07 96.274,85.994 96.274,111.779 108.266,104.857 							"/>
							<polyline fill="#F2BA68" points="108.266,79.07 96.274,85.994 96.274,111.779 							"/>
						</g>
						<g>
							<polygon fill="#C69B4E" points="97.735,110.734 97.735,107.855 100.228,106.416 100.228,109.295 							"/>
							<polygon fill="#C69B4E" points="101.218,108.733 101.218,105.855 103.711,104.416 103.711,107.295 							"/>
							<polygon fill="#C69B4E" points="104.699,106.733 104.699,103.854 107.193,102.414 107.193,105.294 							"/>
						</g>
					</g>
					<g>
						<g>
							<polygon fill="#A5913D" points="54.494,96.292 66.483,103.215 66.483,129 54.494,122.079 							"/>
							<polyline fill="#8E7D36" points="54.494,96.292 66.483,103.215 66.483,129 							"/>
							<polygon fill="#EFCF6A" points="78.475,96.292 66.483,103.215 66.483,129 78.475,122.079 							"/>
							<polyline fill="#F2BA68" points="78.475,96.292 66.483,103.215 66.483,129 							"/>
						</g>
						<g>
							<polygon fill="#C69B4E" points="67.947,127.955 67.947,125.076 70.438,123.637 70.438,126.516 							"/>
							<polygon fill="#C69B4E" points="71.428,125.955 71.428,123.076 73.92,121.637 73.92,124.516 							"/>
							<polygon fill="#C69B4E" points="74.91,123.954 74.91,121.076 77.402,119.636 77.402,122.514 							"/>
						</g>
					</g>
				</g>
				<g>
					<polygon fill="#9FA4A5" points="15.282,90.738 39.408,76.81 51.473,83.773 27.344,97.702 					"/>
					<g>
						<g>
							<polygon fill="#559CA3" points="37.706,52.158 49.697,59.081 49.697,84.866 37.706,77.944 							"/>
							<polyline fill="#4A858E" points="37.706,52.158 49.697,59.081 49.697,84.866 							"/>
							<polygon fill="#417682" points="61.688,52.158 49.697,59.081 49.697,84.866 61.688,77.944 							"/>
							<polyline fill="#316068" points="61.688,52.158 49.697,59.081 49.697,84.866 							"/>
						</g>
						<g>
							<polygon fill="#F9CE46" points="51.158,83.821 51.158,80.943 53.65,79.503 53.65,82.383 							"/>
							<polygon fill="#F9CE46" points="54.641,81.821 54.641,78.943 57.134,77.502 57.134,80.382 							"/>
							<polygon fill="#F9CE46" points="58.123,79.82 58.123,76.941 60.616,75.502 60.616,78.381 							"/>
						</g>
					</g>
					<g>
						<g>
							<polygon fill="#A5913D" points="7.918,69.379 19.908,76.303 19.908,102.088 7.918,95.166 							"/>
							<polyline fill="#8E7D36" points="7.918,69.379 19.908,76.303 19.908,102.088 							"/>
							<polygon fill="#EFCF6A" points="31.899,69.379 19.908,76.303 19.908,102.088 31.899,95.166 							"/>
							<polyline fill="#F2BA68" points="31.899,69.379 19.908,76.303 19.908,102.088 							"/>
						</g>
						<g>
							<polygon fill="#C69B4E" points="21.37,101.043 21.37,98.164 23.861,96.725 23.861,99.604 							"/>
							<polygon fill="#C69B4E" points="24.851,99.041 24.851,96.164 27.344,94.725 27.344,97.603 							"/>
							<polygon fill="#C69B4E" points="28.335,97.041 28.335,94.163 30.825,92.723 30.825,95.602 							"/>
						</g>
					</g>
				</g>
				<g>
					<g>
						<g>
							<g>
								<g>
									<polygon fill="#12AD66" points="7.918,25.797 66.438,59.59 66.438,103.342 7.918,69.546 									"/>
									<polyline fill="#12CC73" points="66.438,59.59 66.438,103.342 7.918,69.546 									"/>
									<polyline fill="#0A9157" points="7.918,25.797 66.438,59.59 66.438,103.342 									"/>
									<polygon fill="#12AD66" points="37.177,64.568 66.438,103.342 66.438,59.59 									"/>
									<polygon fill="#055E5A" points="66.438,59.59 66.438,103.342 108.266,79.203 108.266,35.453 									"/>
									<polyline fill="#03515B" points="108.266,35.453 66.438,59.59 66.438,103.342 									"/>
								</g>
								<polygon fill="#7BCE0F" points="66.438,59.59 108.266,35.453 49.729,1.656 7.918,25.797 								"/>
								<polyline fill="#75B70D" points="66.438,59.59 108.266,35.453 49.729,1.656 								"/>
								<polyline fill="#60A50F" points="7.918,25.797 66.438,59.59 108.266,35.453 								"/>
								<polygon fill="#0A9157" points="58.084,30.624 66.438,59.59 108.266,35.453 								"/>
							</g>
							<g>
								<g>
									<polygon fill="#8E7D36" points="92.156,52.662 110.253,42.214 110.253,71.959 92.156,82.407 									"/>
									<polygon fill="#D8A759" points="74.06,42.214 92.156,52.662 92.156,82.407 74.06,71.959 									"/>
									<polyline fill="#C69B4E" points="74.06,42.214 92.156,52.662 92.156,82.407 									"/>
									<polygon fill="#FFDF85" points="74.06,42.214 92.156,31.766 110.253,42.214 92.156,52.662 									"/>
									<polyline fill="#EFCF6A" points="110.253,42.214 92.156,52.662 74.06,42.214 									"/>
								</g>
								<g>
									<g>
										<polygon fill="#070606" points="95.769,55.363 95.769,57.952 98.022,56.651 98.006,54.072 										"/>
										<polygon fill="#070606" points="105.413,49.777 105.413,52.367 107.666,51.066 107.649,48.486 										"/>
									</g>
									<g>
										<polyline fill="#333232" points="95.769,57.952 98.022,56.651 98.006,54.072 										"/>
										<polyline fill="#333232" points="105.413,52.367 107.666,51.066 107.649,48.486 										"/>
									</g>
								</g>
							</g>
							<g>
								<g>
									<polygon fill="#EFCF6A" points="98.071,28.726 122.082,14.863 122.082,54.33 98.071,68.191 									"/>
									<polyline fill="#F2BA68" points="98.071,68.191 98.071,28.726 122.082,14.863 									"/>
									<polygon fill="#C69B4E" points="98.071,59.836 122.082,45.974 122.082,41.326 98.071,55.188 									"/>
									<polygon fill="#D8A759" points="74.06,14.863 98.071,28.726 98.071,68.191 74.06,54.33 									"/>
									<polyline fill="#C69B4E" points="74.06,14.863 98.071,28.726 98.071,68.191 									"/>
									<polygon fill="#FFDF85" points="74.06,14.863 98.071,1 122.082,14.863 98.071,28.726 									"/>
									<polyline fill="#EFCF6A" points="122.082,14.863 98.071,28.726 74.06,14.863 									"/>
								</g>
								<g>
									<g>
										<polygon fill="#070606" points="102.863,32.311 102.863,35.745 105.854,34.02 105.833,30.597 										"/>
										<polygon fill="#070606" points="115.659,24.898 115.659,28.334 118.649,26.607 118.628,23.186 										"/>
									</g>
									<g>
										<polyline fill="#333232" points="102.863,35.745 105.854,34.02 105.833,30.597 										"/>
										<polyline fill="#333232" points="115.659,28.334 118.649,26.607 118.628,23.186 										"/>
									</g>
								</g>
								<g>
									<polygon fill="#C69B4E" points="110.253,38.531 110.253,39.633 111.212,39.08 111.205,37.982 									"/>
									<polygon fill="#C69B4E" points="115.304,35.609 114.354,36.157 114.354,37.258 115.311,36.705 									"/>
								</g>
							</g>
						</g>
					</g>
				</g>
			</g>
		</g>
	</g>
	<polyline fill="#9B6F29" points="81.146,45.416 81.146,50.064 98.071,59.836 98.071,55.188 	"/>
</g>
</svg>
